<svg xmlns="http://www.w3.org/2000/svg" width="439.79" height="121.64" viewBox="0 0 439.79 121.64"><defs><style>.a{fill:#fff;}</style></defs><g transform="translate(-259.908 -249.634)"><g transform="translate(259.908 249.634)"><path class="a" d="M306.716,293.946q.672,4.217,2.231,5.51t5.6,1.54l-1.24,4.712h-22.18L292.294,301q4.252-.318,5.668-1.24a3.356,3.356,0,0,0,1.417-3.047q0-.672-.089-1.594t-.266-2.091l-.815-5.386H278.4l-3.826,7.476a10.789,10.789,0,0,0-.744,1.807,5.272,5.272,0,0,0-.284,1.453A2.021,2.021,0,0,0,275,300.342a16.876,16.876,0,0,0,5.279.655l-1.133,4.712H259.908l1.24-4.712a9.141,9.141,0,0,0,3.933-1.789,17.043,17.043,0,0,0,3.473-4.446l23.633-41.313h8.149Zm-25.546-11.018H297.5l-3.471-22.5Z" transform="translate(-259.908 -248.239)"/><path class="a" d="M321.907,294.351q-3.65,6.981-6.979,10.1a10.294,10.294,0,0,1-7.123,3.117,5.974,5.974,0,0,1-4.57-1.771,6.906,6.906,0,0,1-1.665-4.925q0-2.728,3.153-13.96l.32-1.169,5.952-21.153q.565-1.983.833-3.277a10.513,10.513,0,0,0,.265-1.86,2.16,2.16,0,0,0-1.293-2.02,8.79,8.79,0,0,0-3.915-.673h-2.693l1.1-3.968q4.215-.072,8.326-.32t7.972-.709l-10.594,37.309q-1.348,4.82-1.9,7.228a18.012,18.012,0,0,0-.549,3.3,2.451,2.451,0,0,0,.549,1.684,1.865,1.865,0,0,0,1.471.62,4.714,4.714,0,0,0,3.208-1.824,30.586,30.586,0,0,0,3.915-5.722h4.214Z" transform="translate(-244.679 -248.856)"/><path class="a" d="M340.508,295.554a30.332,30.332,0,0,1-6.29,9.6,10.467,10.467,0,0,1-7.281,3.189,5.858,5.858,0,0,1-4.535-1.771,7,7,0,0,1-1.629-4.925,22.949,22.949,0,0,1,.709-5.048,53.449,53.449,0,0,1,2.055-6.608q.672-1.807,1.842-4.924,3.083-8.255,3.082-9.885a2.992,2.992,0,0,0-.389-1.736,1.479,1.479,0,0,0-1.275-.531,4.972,4.972,0,0,0-3.331,1.594,26.037,26.037,0,0,0-3.933,5.244h-4.039a32.309,32.309,0,0,1,6.732-9.372q3.648-3.312,7.121-3.313a5.437,5.437,0,0,1,4.323,1.789,7.392,7.392,0,0,1,1.559,5.014,19.309,19.309,0,0,1-.762,4.695q-.762,2.888-3.455,10.4-1.985,5.457-2.657,7.778a13.818,13.818,0,0,0-.673,3.384,2.752,2.752,0,0,0,.549,1.843,1.924,1.924,0,0,0,1.54.638,4.574,4.574,0,0,0,3.171-1.736,25.912,25.912,0,0,0,3.6-5.315h3.968Zm-11.551-33.236h-3.117l10.382-10.452a9.735,9.735,0,0,1,2.126-1.666,3.956,3.956,0,0,1,1.878-.567,2.727,2.727,0,0,1,2.037.815,2.865,2.865,0,0,1,.8,2.091,2.289,2.289,0,0,1-.584,1.506,8.893,8.893,0,0,1-2.108,1.613Z" transform="translate(-239.59 -249.634)"/><path class="a" d="M349.2,316.066l1.1-4a8.121,8.121,0,0,0,4.3-.868,5.474,5.474,0,0,0,2-3.242l3.117-11.267a21.073,21.073,0,0,1-6.183,5.51,14.1,14.1,0,0,1-6.963,1.824,9.87,9.87,0,0,1-8.2-4.146Q335.2,295.728,335.2,289a30.291,30.291,0,0,1,1.7-9.956,30.742,30.742,0,0,1,4.819-8.929,23.634,23.634,0,0,1,6.944-6.13,15.745,15.745,0,0,1,7.794-2.126,9.685,9.685,0,0,1,6.219,1.984,14.525,14.525,0,0,1,4.164,6.2l4.5-7.547H375.7l-11.763,42.766a14.677,14.677,0,0,0-.371,1.79,11.355,11.355,0,0,0-.124,1.613,2.814,2.814,0,0,0,1.417,2.693,11.379,11.379,0,0,0,5.032.78l-1.027,3.933H349.2Zm8.5-49.286a9.436,9.436,0,0,0-5.368,1.771,17.949,17.949,0,0,0-4.8,5.139,31.11,31.11,0,0,0-3.7,8.1,29.948,29.948,0,0,0-1.364,8.663,10.231,10.231,0,0,0,1.824,6.448,6.046,6.046,0,0,0,5.048,2.339,9.021,9.021,0,0,0,4.8-1.435,16.392,16.392,0,0,0,4.411-4.235,33.22,33.22,0,0,0,6.023-18,10.126,10.126,0,0,0-1.86-6.413A6.035,6.035,0,0,0,357.7,266.78Z" transform="translate(-232.386 -245.167)"/><path class="a" d="M363.89,275.113a32.3,32.3,0,0,1,6.5-9.638,10.451,10.451,0,0,1,7.21-3.154,5.86,5.86,0,0,1,4.535,1.771,7.006,7.006,0,0,1,1.629,4.925,23.394,23.394,0,0,1-.815,5.439,71.59,71.59,0,0,1-2.446,7.636q-.389,1.063-1.1,2.975-3.117,8.326-3.117,10.558a3.249,3.249,0,0,0,.993,2.533,4.008,4.008,0,0,0,2.8.9q5.457,0,10.54-9.478t8.84-26.733H406.8l-5.739,18.495q-2.054,6.626-2.817,9.672a20.787,20.787,0,0,0-.762,4.393,2.822,2.822,0,0,0,.46,1.718,1.535,1.535,0,0,0,1.311.62,5.579,5.579,0,0,0,3.9-2.073,20.319,20.319,0,0,0,3.649-5.829h4.039a29.5,29.5,0,0,1-6.5,9.992q-3.916,3.791-7.565,3.791a5,5,0,0,1-4.11-1.736,7.788,7.788,0,0,1-1.417-5.032,15.84,15.84,0,0,1,.089-1.594c.059-.591.147-1.263.265-2.02a31.845,31.845,0,0,1-7,7.936,11.684,11.684,0,0,1-7.068,2.515,7.562,7.562,0,0,1-5.616-2.162,7.7,7.7,0,0,1-2.144-5.668q0-3.826,3.4-13.11l.391-1.062q1.948-5.457,2.64-7.777a13.546,13.546,0,0,0,.691-3.384,2.648,2.648,0,0,0-.584-1.824,2.049,2.049,0,0,0-1.613-.655,4.682,4.682,0,0,0-3.153,1.771,24.37,24.37,0,0,0-3.579,5.279H363.89Z" transform="translate(-221.9 -244.997)"/><path class="a" d="M435.84,278.563a28.854,28.854,0,0,1-1.559,9.389A26.556,26.556,0,0,1,429.959,296a21.89,21.89,0,0,1-7.3,5.846,19.756,19.756,0,0,1-8.823,2.055,14.453,14.453,0,0,1-11.18-4.659q-4.269-4.658-4.269-12.242a28.541,28.541,0,0,1,2-10.754,24.3,24.3,0,0,1,5.829-8.627,20.129,20.129,0,0,1,6.608-4.359,20.754,20.754,0,0,1,7.778-1.452,14.253,14.253,0,0,1,11.072,4.57Q435.842,270.944,435.84,278.563Zm-21.257,21.4a8.6,8.6,0,0,0,5.155-1.736,15.931,15.931,0,0,0,4.34-5.208A30.376,30.376,0,0,0,427,285.332a36.91,36.91,0,0,0,1.046-8.716q0-5.457-2-8.167a6.949,6.949,0,0,0-5.97-2.711q-5.67,0-9.691,6.414t-4.022,15.979q0,5.7,2.144,8.769A6.983,6.983,0,0,0,414.583,299.964Z" transform="translate(-209.289 -245.185)"/><path class="a" d="M436.173,270.332h-7.546l1.1-3.826h7.547l3.933-14.173h6.945l-3.9,14.173H451.2l-.851,3.826h-7.121L436.1,295.878a13.779,13.779,0,0,0-.426,1.931,12.79,12.79,0,0,0-.142,1.86,2.585,2.585,0,0,0,.531,1.807,2.239,2.239,0,0,0,1.7.567,6.33,6.33,0,0,0,4.217-2.162,26.544,26.544,0,0,0,4.5-6.307h4.357A32.6,32.6,0,0,1,443.6,303.9a12.435,12.435,0,0,1-8.345,3.455,6.428,6.428,0,0,1-4.908-1.9,7.31,7.31,0,0,1-1.789-5.226,35.464,35.464,0,0,1,1.488-7.689l.142-.46Z" transform="translate(-198.263 -248.647)"/><path class="a" d="M470.469,297.181a23.592,23.592,0,0,1-6.343,5.19,13.861,13.861,0,0,1-6.59,1.719,9.86,9.86,0,0,1-8.2-4.164q-3.171-4.164-3.171-10.931a30.324,30.324,0,0,1,1.7-9.956,30.808,30.808,0,0,1,4.819-8.929A24.05,24.05,0,0,1,459.627,264a15.533,15.533,0,0,1,7.723-2.144,9.831,9.831,0,0,1,6.254,1.984,14.37,14.37,0,0,1,4.2,6.2l1.949-7.547h6.911L478.37,292.4l-.034.107a14.654,14.654,0,0,0-.6,3.153,2.905,2.905,0,0,0,.549,1.86,1.782,1.782,0,0,0,1.469.691A4.745,4.745,0,0,0,483,296.4a24.823,24.823,0,0,0,3.6-5.315h4.039a29.839,29.839,0,0,1-6.288,9.585,10.524,10.524,0,0,1-7.281,3.206,5.907,5.907,0,0,1-4.394-1.613A9.367,9.367,0,0,1,470.469,297.181Zm-1.807-30.4a9.436,9.436,0,0,0-5.368,1.771,17.972,17.972,0,0,0-4.8,5.139,31.156,31.156,0,0,0-3.7,8.1,30.169,30.169,0,0,0-1.364,8.734,10.018,10.018,0,0,0,1.843,6.4,6.075,6.075,0,0,0,5.032,2.321,9.024,9.024,0,0,0,4.8-1.435,16.412,16.412,0,0,0,4.411-4.235,33.219,33.219,0,0,0,6.023-18,10.127,10.127,0,0,0-1.86-6.413A6.039,6.039,0,0,0,468.663,266.78Z" transform="translate(-191.827 -245.167)"/><path class="a" d="M490.425,303.876a14.616,14.616,0,0,1-9.389-2.959,9.051,9.051,0,0,1-3.72-7.352,6.4,6.4,0,0,1,1.24-4.128,4.05,4.05,0,0,1,3.329-1.54,4.149,4.149,0,0,1,2.924,1.027,3.488,3.488,0,0,1,1.116,2.693,4.328,4.328,0,0,1-1.293,3.012q-1.294,1.383-1.293,1.7,0,1.2,2.127,2.3a10.644,10.644,0,0,0,4.96,1.1A9.507,9.507,0,0,0,496.414,298a5.578,5.578,0,0,0,2.233-4.641q0-3.189-5.989-7.723-.813-.6-1.2-.922a32.171,32.171,0,0,1-6.732-6.359,9.579,9.579,0,0,1-1.772-5.545,9.89,9.89,0,0,1,3.632-7.83,13.663,13.663,0,0,1,9.23-3.117,13.971,13.971,0,0,1,8.734,2.693,7.984,7.984,0,0,1,3.524,6.519A5.439,5.439,0,0,1,506.7,274.9a4.522,4.522,0,0,1-3.49,1.488,4.143,4.143,0,0,1-2.853-.956,3.161,3.161,0,0,1-1.08-2.48,4,4,0,0,1,1.488-3.012q1.489-1.346,1.488-1.913,0-.813-1.878-1.753a9.152,9.152,0,0,0-4.146-.939,7.7,7.7,0,0,0-4.961,1.613,4.858,4.858,0,0,0-2.02,3.915,5.283,5.283,0,0,0,1.1,3.119,18.416,18.416,0,0,0,3.934,3.613l.778.6q10.17,7.654,10.169,13.429a10.943,10.943,0,0,1-4.252,8.7A15.9,15.9,0,0,1,490.425,303.876Z" transform="translate(-180.439 -245.165)"/><g transform="translate(145.124 71.139)"><path class="a" d="M390.786,302.54v3.486l-1.923.131a4.668,4.668,0,0,0-3.4,1.286q-.93,1.124-.929,5.458v27.369q0,4.3.912,5.425a4.641,4.641,0,0,0,3.421,1.286l1.923.162V350.6h-24.6v-3.453l2.02-.162a4.569,4.569,0,0,0,3.339-1.255q.9-1.09.9-5.457V312.9q0-4.4-.9-5.491a4.632,4.632,0,0,0-3.371-1.254l-1.988-.131V302.54h24.6Z" transform="translate(-366.185 -301.434)"/><path class="a" d="M430.966,334.522q-1.6,8.572-6.972,13.131t-13.912,4.562a24.947,24.947,0,0,1-9.139-1.645,22.889,22.889,0,0,1-7.607-4.9,22.14,22.14,0,0,1-5.409-8.147,29.189,29.189,0,0,1-1.824-10.59,26.863,26.863,0,0,1,1.923-10.312,23.851,23.851,0,0,1,22.19-14.842,21.256,21.256,0,0,1,3.828.341,18.938,18.938,0,0,1,3.535,1c.347.152.847.37,1.5.651a16.538,16.538,0,0,0,4.758,1.532,2.058,2.058,0,0,0,1.742-.848,3.822,3.822,0,0,0,.635-2.346H429.7l.782,19.941h-3.388q-2.249-8.568-5.653-12.348a11.316,11.316,0,0,0-8.813-3.78,10.926,10.926,0,0,0-9.889,5.343q-3.341,5.344-3.34,15.8,0,10.688,3.079,15.884a10.191,10.191,0,0,0,9.4,5.2,13.175,13.175,0,0,0,9.205-3.568,20.359,20.359,0,0,0,5.62-10.052h4.266Z" transform="translate(-358.905 -301.714)"/><path class="a" d="M431.176,338.576q0,5.051,1.368,6.729t5.246,1.841V350.6H420.618v-3.453q3.843-.162,5.23-1.841t1.385-6.729V312.9q0-4.334-.929-5.458a4.664,4.664,0,0,0-3.4-1.286l-2.02-.131V302.54h20.43L452.453,333.4l10.687-30.855h20.331v3.486l-1.92.131a4.671,4.671,0,0,0-3.406,1.286q-.928,1.122-.929,5.458v27.369q0,4.3.912,5.425a4.64,4.64,0,0,0,3.422,1.286l1.92.162V350.6H459.523v-3.453l1.662-.162a4.833,4.833,0,0,0,3.453-1.3q.911-1.108.912-5.409v-33.92L450.043,350.6h-3.128l-15.735-44.182v32.16Z" transform="translate(-346.288 -301.434)"/><path class="a" d="M473.923,352.166h-3.552l-.587-19.68h3.453q2.9,7.917,7.4,11.925a15.279,15.279,0,0,0,10.493,4.008,8.467,8.467,0,0,0,5.849-1.987,6.651,6.651,0,0,0,2.231-5.214,6.343,6.343,0,0,0-1.759-4.528,17.158,17.158,0,0,0-6-3.552q-1.3-.522-3.909-1.532a71.463,71.463,0,0,1-9.481-4.267,16.194,16.194,0,0,1-5.571-4.986A11.43,11.43,0,0,1,470.7,316a13.192,13.192,0,0,1,4.464-10.248A16.438,16.438,0,0,1,486.6,301.73a25.721,25.721,0,0,1,8.162,1.434,36.911,36.911,0,0,0,4.774,1.434,1.922,1.922,0,0,0,1.434-.653A7.164,7.164,0,0,0,502.2,301.8h3.128l.2,15.672H502.4a20.13,20.13,0,0,0-6.011-8.976,14.26,14.26,0,0,0-9.139-2.982,9.581,9.581,0,0,0-5.978,1.711,5.411,5.411,0,0,0-2.233,4.513q0,4.2,11.339,8.439l.259.1q6.028,2.214,8.585,3.47a21.834,21.834,0,0,1,4.122,2.525,14.6,14.6,0,0,1,3.878,4.9,14.146,14.146,0,0,1,1.237,6.044q0,6.907-4.579,10.931t-12.43,4.024a22.613,22.613,0,0,1-5.132-.6,35.965,35.965,0,0,1-5.752-1.939c-.347-.152-.814-.359-1.4-.619a8.259,8.259,0,0,0-2.607-.912,1.947,1.947,0,0,0-1.629,1.043A7.909,7.909,0,0,0,473.923,352.166Z" transform="translate(-328.317 -301.73)"/></g></g><g transform="translate(609.908 267.189)"><g transform="translate(0)"><path class="a" d="M597.027,262.49H525.195a8.986,8.986,0,0,0-8.976,8.976v84.207a8.991,8.991,0,0,0,8.976,8.981h71.832a8.993,8.993,0,0,0,8.982-8.981V271.466A8.987,8.987,0,0,0,597.027,262.49Zm3,93.182a3,3,0,0,1-2.995,2.993H525.2a3,3,0,0,1-2.993-2.993V271.466a3,3,0,0,1,2.993-2.988h71.832a2.991,2.991,0,0,1,2.995,2.988Z" transform="translate(-516.219 -262.49)"/></g><g transform="translate(11.973 11.973)"><path class="a" d="M587.836,271.258H527.98a2.99,2.99,0,0,0-2.993,2.995v24.341a2.994,2.994,0,0,0,2.993,2.995h59.855a2.99,2.99,0,0,0,2.993-2.995V274.253A2.987,2.987,0,0,0,587.836,271.258ZM584.841,295.6H530.974V277.243h53.867Z" transform="translate(-524.987 -271.258)"/></g><g transform="translate(11.972 48.285)"><path class="a" d="M539.949,297.85h-11.97a3,3,0,0,0-2.993,3V312.82a3,3,0,0,0,2.993,2.993h11.97a2.991,2.991,0,0,0,2.988-2.993V300.847A2.99,2.99,0,0,0,539.949,297.85Zm-2.993,11.976h-5.982v-5.985h5.982Z" transform="translate(-524.986 -297.85)"/></g><g transform="translate(11.972 72.231)"><path class="a" d="M539.949,315.386h-11.97a2.993,2.993,0,0,0-2.993,2.993v11.977a2.988,2.988,0,0,0,2.993,2.988h11.97a2.984,2.984,0,0,0,2.988-2.988V318.379A2.987,2.987,0,0,0,539.949,315.386Zm-2.993,11.969h-5.982v-5.988h5.982Z" transform="translate(-524.986 -315.386)"/></g><g transform="translate(35.911 48.285)"><path class="a" d="M557.487,297.85h-11.97a3,3,0,0,0-3,3V312.82a3,3,0,0,0,3,2.993h11.97a2.991,2.991,0,0,0,2.988-2.993V300.847A2.991,2.991,0,0,0,557.487,297.85Zm-2.993,11.976h-5.982v-5.985h5.982Z" transform="translate(-542.517 -297.85)"/></g><g transform="translate(35.911 72.231)"><path class="a" d="M557.487,315.386h-11.97a2.994,2.994,0,0,0-3,2.993v11.977a2.989,2.989,0,0,0,3,2.988h11.97a2.984,2.984,0,0,0,2.988-2.988V318.379A2.988,2.988,0,0,0,557.487,315.386Zm-2.993,11.969h-5.982v-5.988h5.982Z" transform="translate(-542.517 -315.386)"/></g><g transform="translate(59.858 48.285)"><path class="a" d="M575.018,297.85h-11.97a3,3,0,0,0-2.993,3v35.919a2.991,2.991,0,0,0,2.993,2.988h11.97a2.985,2.985,0,0,0,2.993-2.988V300.847A2.993,2.993,0,0,0,575.018,297.85Zm-2.995,35.915h-5.988V303.841h5.988Z" transform="translate(-560.054 -297.85)"/></g></g></g></svg>