<svg xmlns="http://www.w3.org/2000/svg" width="56.531" height="32.431" viewBox="0 0 56.531 32.431">
  <path id="BR-AL" d="M562.616,231.9l-.224-.819-1.593-.875-.505.1-1.145-.325-.606-1.571h0l1.481-1.2.718-1.223,2.435-.853,2.671-3.692.1-.774.92-.673,1.122,1.369,1.874.337,1.212-.135,2.861,2.267,2.132,2.379,2,1.178,2.143.539,2.805-.729,3.524.325,1.313-.123,2.087-1.189,1.3.056,2.031-1.246,2.446-2.57.135-.5,1.739-1.391,2.244-.269,2.514.954,2.873-1.448,1.65-.213,2.155.909,3.254.3.3.236h0l-3.12,5.566-5.106,5.757-4.017,4.017-3.411,5.139L593.2,244.74l-1.122,2.278-1.481,2.009h0l-.673-1.47-4.029-2.5-.516-.034-1.863-.887-1.975-1.627-1.459-2.749-6.082-3.445-4.13-1.066Z" transform="translate(-557.348 -218.555)" fill="#007900" stroke="#fff" stroke-width="2"/>
</svg>
