<svg xmlns="http://www.w3.org/2000/svg" width="131.5" height="74.119" viewBox="0 0 131.5 74.119">
  <path id="BR-AC" d="M34.455,243.552l-2.334-.045.606-2.031-.236-.931L32.21,240l-1.4-.785-.157-.5.3-1.29-.864-2.188-1.223-.718-6.284-1.4-8.237-.213.3-.628,2.794-2.536,1-1.38L18.767,227l-.247-1.38-.763-1.021-.931-.494L14.94,220.8l-.864-.494-1.01-.213L11.8,218.82l-1.032-2.671-2.244-1.717-1.1-4.062-.976-1.84-2.11-1.212-.09-1.313.909.112.471-.584.079-.752-.224-.471L3.1,203.267l-.4-.741L.263,200.406l.045-.415.7-.056.561-1.481-.011-1.47,3.378-.438.561-.438-.247-1.515-1.313-1.762h0l20.143,8.394,26.55,6.351L64.248,211.1,93.918,227l31.993,13.612h0l3.333,1.414h0l-.337.539-1.762.741L124.8,245.09l-3.209,3.131-1.852.965-.741-.2-1.717.2-.056.628-2.155,1.459-2.334,1.111-1.616,2.054-.494,1.324-.685.314-1.313-.842-.853-.146-2.66.056-.763.292-.707.5-.4.965-2.738,3.905-4.231,1.4-.943.774-2.177.572L92,263.594l.09-2.368-1.526.224-3.984-.864-5.88-.527-5.712.426-.741-.651-2.547-.191L67.7,261.7l-3.063.7-1.885-.752-1.571-1.616-1.84,1.3.045-19.694.056-1.234.527-.8.079-2.637-.292-.988,1.088-1.324.539-1.279-1.3.224-3.333,2.906-1.8,1.133-2.312,2.671-2.188.752-.729,1.212L47.7,243.384Z" transform="translate(0.788 -190.506)" fill="#007900" stroke="#fff" stroke-width="2"/>
</svg>
