<svg xmlns="http://www.w3.org/2000/svg" width="307.465" height="214.011" viewBox="0 0 307.465 214.011">
  <path id="BR-AP" d="M225.198,39.089
                          c3.274,1.165,3.985-1.315,6.572-1.74c3.616-0.603,5.683,2.725,9.037,2.067c4.055-0.78,7.093-8.025,7.314-11.598
                          c4.492-3.534,5.503-11.258,9.42-14.68c6.055,4.258,6.11,15.788,7.589,22.485c-0.164,0.083,6.57,7.998,7.944,8.682
                          c3.396,1.657,3.366,6.203,0.078,9.34c-3.777,3.587-7.449,34.275-7.449,34.275h-46.489c0,0,0.932-50.366,0-51.449
                          C221.814,36.458,223.334,38.417,225.198,39.089z" transform="translate(-2.45 -45.5)" fill="#007900" stroke="#fff" stroke-width="2"/>
</svg>
