<svg xmlns="http://www.w3.org/2000/svg" width="307.465" height="214.011" viewBox="0 0 307.465 214.011">
  <path id="BR-AM" d="M185.948,47.551l.808.875.842.382.685.011,1.268-.471.707.123.067,1.077,1.358,1.313,1.089.415.988-.236,1.526.123,2.188,1.066.55.741L197,56.7l-.8,1.683,3.063,4.2,1.863,5.341.213,2.536.976,1.257.056.5-1.818,1.638.4,1.784.741,1.773-.864,3.411L200.2,81.9l.325,5.588.988,2.435,1.369.943.651,1.01,1.268,4.859-.067.651-1.279,1.481-2.065-.37-.157,1.279,5.622,4.96.584.045,2.2,1.47L211.3,108.1l1.167,2.289.595.079,1.5-.471,2.648,1.167-.494-2.368.842-2.57.281-1.941-.415-2.02.92-3.333,1.145-1.414,1.436-.774,2.345-.8.617-1,1.8-.067,3.176,1.044,2.1,2.289,1.032,2.817,2.042.258,1.4-.516,1.582-1.582,2.278-.617.471-.438.022-.595-1.279-1.582-.258-.819.123-.741,1.29-2.962.079-1.268,1.863-3.4,2.615-3.658-.034-.763,20.749.079h0l.449,5.454-.483,1.627.2,2.547.269.763,1.908.954.2.46-.393.774-.056,2.368,2.054,2.233.4.213.786-.2,2.065,1.38.617,2.054L273,104.1l.337.5,5.207,4.231,5.139,2.85.707,1.01,1.515,1.223,2.11.752,2.66,1.47,2.536.729,1.526.168,1.481.92.09.685,1.425,1.5,3.03,1.616L302,124.194l2.1.887.954-.685L306.6,124l.213.539-.146.875,2.031,1.874-33.552,72.087-.875,1.47-1.627,1.268-.651,1.088-.034,1.268.92,2.615.426.64,1.2.651,1.773,1.751.718,1.414.168,2.2.64.64h0l-1.324,1.347-.224.685-.067.853.382.943-.3,1.133-1.347,2.042-.965.718-.471.954.112.954.741,1.537.516,2.177-1.549,4.736-1.324,5.858-1.358.819-53.7.359h0l.045-.786-.4-.426-1.56-.314-2.155,1.212-.606,1.953-.763.213-3.636-1.661-.763-3.232-.7-.224-1.1.146-.516-.236-1.4-3.669-2.85-1.1-1.492-1.425-.9-2.143-.5-.55-2.413-1.268-12.108.067-1.549,2.873-1.93.561.1,1.313-.292.247-2.783.595-1.335,1.784-.056.752,1.01.786.191.5-.4,1.145-.909,1.29-2.312,1.358-.123,2.031.269,1.638-4.343-.516-2.39.426-1.347,1.2-2.009-.112-.943-.617-.516-.022-1.964,1.414-.595.943.292,1.964-2.85,3.546-.763.09-.763-.595-.718-2.536-.426-.1-2.065,1.145-1.459,1.358-1.537.438-.864-.146-1.212.561-.46.595-.146.808-1.369.887-.415.022-2.592-2.615-.808-.415-3.221.37-4.444-.292.18,1.448-.168.628-1.739,2.031-2.155.651-3.658,2.873h0L93.527,244.747l-29.67-15.9-13.623-3.524-26.55-6.351L3.542,210.578h0l-.079-.729.786-3.277L5.618,205l5.521-3.894,2.536-.269.527-.337,1.1-1.751.09-1.156-1.953-5.038.426-1.335,1.324-2.458,1.436-1.481,1.032-1.4.471-1.1.337-1.953-.325-1.481.752-2.289.348-2.592.819-.842,4.107-1.829,2.458-1.38,1.29-1.167.494-1.571.875-.415,1.582-.123,1.852-1.044,3.972-3.063,2.716-.483,1.694.325,4.7-1.369,1.683-.864,2.042-.4,3.737.426,1.459-1.784.707-1.627,1.223-.685,2.4.224.718.606,1.481-.269,1.234-.83,1.919.135.348.595-.022,1.324,1.807,1.448,3.176.09.651-.449.516-.875-.123-.438,1.313-5.521,7.518-41.711,1.3-3.277-1.111-5.566.135-.292-1.459-1.178L76.8,99.5l-.045-.55.729-1.56-.584-2-.415-.449-1.908-.662-3.4-2.637L69,89.082l.224-12.916,4.365-.292,1.964-1.313,3.928-1.032L82.485,75.5l1.369.123,1.425-.483-.55-1.9.337-1.93-1.537-2.357-.64-.606-1.29-.673-1.694.595-3.131-.685-4.006.1L72.7,56.584l1.077.045,1.481-.651,2.559-.673L81,56.281l21.355.067-.516-.741-.887-.157L100.53,54.1l1.066-2.166,1.6.449.685,1.706.976,1.481.741.393.931.011,1.807-.685,2.177-2.345.359-.943,1.414-1.391,2.862-1.56,1.448.516,1.313,2.9L119.73,54.7l.83,1.459.741,2,.258,1.739-.55,4.073.224,1.975,3.591-.842,9.325,7.922.887.314,2.805.236,2.581-1.122,1.908-1.908,2.368-1.3,2.458-.123.628.325.864,1.212-.022,1.088-1.246,1.908.415,1.1.651.3,1.492-.808.628-1.021.258-1.448,1.122-1.3.527-.258,1.122.2.617-.2.46-.741.516-2.592.572-.415,1.694-.4,3.288-1.986,1.089.617,1.044-.325,1.8-1.167,1.145-1.807,2.368-1.358,2.278.617,2.648-1.852.617-.92.494-2.985-.034-1.448.864-1.032,1.156-.471,1.953-.022,1.5-.438,2.312-1.8,1.077-.415,2.559-.337Z" transform="translate(-2.45 -45.5)" fill="#007900" stroke="#fff" stroke-width="2"/>
</svg>
