<svg xmlns="http://www.w3.org/2000/svg" width="162.365" height="177.934" viewBox="0 0 162.365 177.934">
  <path id="BR-BA" d="M539.9,383.985l-.4-.931.763-1.515-.011-.595-.595-1.167-4.635-3.423-.168-.572.247-1.694-.64-1.38-.729.269-.224.5-.382.2-.247-.281.595-4.937.92-3.7.92-.987,2.772.269,1.145-.8v-.471l-.628-1.145.18-2.974,5.566-4.736,1.65-3.456-.471-1.313-.875-1.145-1-.067-.819-.426-3.176-2.772-2.379.022-2.458-.673-2.547-1.212-3.063-.628-2.222-.157-1.481,1.111-1.65.561-2.929-.5-.64.236-.494-4.444-7.316-6.957-.426-.2-4.926,1.38-1.717-1.391-.572.236-1.044-.247-2.85-1.369-2.435-1.818-1.1.2-4.881-4.073-1.234-.606-3.064-.842-1.986.281-2.11,1.01-.909,1.257-.718.2-5.981-1.65-.685-.55-.292-1.683.157-1,1.448-3.075-.965-.516-2.559-.584-2.446-.045-1.347-.561-2.009-.09-4.3,1.773-4.78,3.4-.718,1.246-3.782,2.1-2.267.449-1.066,1.324-2.031,1.739-1.6.584-1.122-.168-2.076,2.9-1.167.864-2.39-.426-.808.146-.774,1.122-1.5,1.032-.449-.269,1.6-3.849-.572-2.7h0l1.661-2.211.281-.864-.258-1.425-.752-1.93.112-.752.8-1.593-.056-.516-3.6-2.94-1.9-3.883-.7-3.95.056-1.739,1.347-4.3,1.784-1.156.258-.426.067-1.055-1.829-.943-.123-.37.539-2.828,1.6-1.189-.022-.415-3.052-2.76h0l-.045-1.044,1.526-2.671-.045-1.2-.191-.471-1.638-.55-1.055-.729-.393-1.414.067-3.277.213-.954,2.188-1.874,1.279-.471,1.077-.808-.325-.707-.651-.584-1.032-.325-1.156.2-.393-.37-.1-.561.471-1.077,2.289-.92.628-.505-.045-.853-2.11-1.1-4.017-.752-2.087-2.2-.258-1.032.561-1.3,1.133-.819,1.706-3.905,1.01-.685,1.133-.3.393-.426-1.448-2.02.213-.415,3.6-2.94,4.287-2.267.628-.527.247-1.1.774-.729h0l2.615-.022,1.616,1.5.741,1.167.595,2.48,1.975,2.794L454.9,256.7l2.02-.584,2.368.2.37-.236.842-1.627,1.279-.415.752-.976,1.313-1,2.48-.842,1.492.191,1.661.595,1.515-.471,3.333-2.716,3.31-5.667.808-.965.269-1.032.337-2.873-.135-1.3-2.514-4.971.056-1.044,3.636-1.852,2.188-.022,1.683.516.46,1.044.359.2,2.379-.483,1.56-.606,1.492.426,1.919,1.111-.146.729.213.325.92.314,3.366-.123,1.65-.718,1.908-.112.92-1.369,1.694-1.5,3.064-.382.864-.4.909-1.1,2.435.011.7.707.348.056,2.087-2.031-.112-2.693,2.233-.426.887.2,1.178-.741,1.683-2.592.516-1.29h0l1,.449,1.3-.3,2.469.325,3.164,1.56.494.572-.067,3.063.808,2.177,2.48,1.021.3,2.244-1.032,1.885,2.054.7,1.077-.247.92-1.032,3.221-.988.864-4.017.561-.976.842-.18.875.595.707.056,2.682-1.145,1.234-1.391.191-.662-.281-1.526.325-.281,2.514-.5.864-2.3,1.852-.494,2.839-1.638.662-.112,1.672.628.931,1.616,1.526.909,2.648.875,3.355.449,1.773,1.29.606,1.852.438.3.483-.168.325-1.964.483-.494,1.122-.011.505.359.022.707-.7.988.505.931.561.415,2.357.965.022,1.055,1.369,3.423h0l.606,1.571,1.145.325.505-.1,1.6.887.224.808h0l-.752,1.3.236,2.4,1.436,2.805,2.233,2.188.842,1.29-.09,3.5-.741,1.818-.1.988.853,3.086-.337.651-.774.617-2.862,1.122-1.268-.842-1.919-.011-.359.337-.662,1.773.022.864,1.066,1.8,1.234.741.583,1.672,1.6,1.694.168.438-.146,1.593-.382.438.135.471.662.583,2.166,1.032.539.8.606.382,1.739.718,3.243-.987h0l.718-.022.4.46-4.578,9.909-4.3,5.824-1.156,2.615-5.644,6.441-2.749,1.414-.976-.011.337-1.6.415-.168.157-1.234-.5-2.166-2.1-.281-.482-1.459-.763-.842-.415.673-.516,2.615-.561.976-.617.426-.628-.325-.55-1.953.123-.359.348-.146-.034-.438-.976,1.448,1.044,1.9.516.258.415-.168,1.291.292-.516,2.031-1.358,1.29-.281,2.042-1.4,1.089-.393.752-.224.943.2.954-1.515-.438-.236.438-.4,2.828.4-.808.842.236.269.606-.258.46.067.7.337.337.37,1.122-1.167,2.817.64,3.86-.617.55-.64-.247-.157,1.268.662.516,1.358-1.93-.527-2.48.92-.685.281.606-.067,1.975-1.077,2.929-.83,6.093-.572,2.031.224,2.772.875,3.2.213,5.095.976,7.193,1.111,3.838-2.48,7.474-1.515,7.462L558.648,362l-.18,3.209-1.189,4.174-.1,2.615.438,4.96,1,1.919-2.514,3.344-2.031.752-1.055.718-3.052,4.365-.64,2.289h0l-9.078-5.768-.348-.595Zm25-87.528-.258-1.347.83-.46,1.189-1.167.18-.718-.415-.819.853.157.92,1.178-.056.595-3.243,2.581Zm-2.839,7.687-.707-.034.011-.752.292-.4-.9-.247-.471-.449.146-1.2,2.1-.168.18.224.123,1.268-.774,1.762Z" transform="translate(-427.381 -213.98)" fill="#007900" stroke="#fff" stroke-width="2"/>
</svg>
