<svg xmlns="http://www.w3.org/2000/svg" width="75.812" height="90.452" viewBox="0 0 75.812 90.452">
  <path id="BR-CE" d="M582.054,160.975l-5.487,1.784-2.929,2.256-3.7,7.507-.943,1.257-.976.64-.729,1.874.168.83-1.571,2.738-1.638,1.694-.64,1.234-1.156.292-.875-.572-.572.079-.943.988-1.582,2.525-.382,2.211.718.191.741-.426h0l-.09.606-.943,1.29-1.156,3.366.584,1.47-.741,1.47-1.223.707-.191.426-.135,1.044.269.46.651.325.393.808-.022,1.863,1.391,1,.774.09.382,1.335-1.807,3.916-1.335,1.257.191.281h0l-1.784.55-1.2.931-1.728,2.57-1.852.056-.707-1.84-.875-.64-1.526-.539-1.133-1.2-.516-1.111-2.054-.931-3.2-2.132-3.456-.471-1.448.112-2.4.9-1.829.213-1-.269-5.532-.224h0l.067-1.481-.763-.763-.09-1.088,1.279-3.49,1.683-2.525.011-.774-.864-1.3-2.873-.527-1.47-.729-1.133-3-1.178-5.835-.853-2.884.269-.5-1.055-9.157-.123-.426-1.032-.774.9-.651.662-1.773-.673-3.355-1.122-2.256.539-1.8-.886-4.343.83-1.526.022-.853-1.526-1.784-.494-1.941-3.535-7.2-2.02-5.3-.325-1.448.2-1.638,1.773-2.211,1.223-2.076.123-.9h0l.213-.157-.045-.7-.449-.741.729-.909,7.563-.247,3.243-.483,2.323-.741,8.3.887,2.379,1.257,2.177,1.683,4.623,2.446,1.638.584,5.409,3.366,1.358.224,2.491,2.57,3.355,2.368,2.884.808,2.738,3.265,1.369.685L567.5,149.9l4.668,3.456,1.638,2.244,1.167,1.111,1.683.92,1.291.034,2.659,1.032.886.752Z" transform="translate(-507.539 -124.464)" fill="#007900" stroke="#fff" stroke-width="2"/>
</svg>
