<svg xmlns="http://www.w3.org/2000/svg" width="41.068" height="65.114" viewBox="0 0 41.068 65.114">
  <path id="BR-ES" d="M501.928,417.421l-.325-.157.494-2.626.64-1.459-.662-3.5.18-.471,1.93-2.312,5.779.034.617-.359,1.089-3.636,1.246-1.425.987-2.57.269-1.93.292-.494,1.391-.965,1.919-2.345.606-3.333-.325-2.727-1.425-3.153-1.234-1.425-.584-.1-.505.325-.853-.314-.55-.8.483-.617,1.661-.1.9.393,1.088.034,1.066-.269.359-.471-.191-1.93-1.47-.393-.236-.46.337-1.728.034-2.155-.583-.741-1.492-.752-.337-.786,1.313-2.166,2.435-1.47.348-.022,1.178.83,1.268.123.023-.909-1.874-2.547,1.5.146,2.446-.325.943-.684,1.212-.359,1.773-.09,2.85.909,1.021.617h0l.337.595,9.089,5.768h0l-1.044,3.759-.348,3.209.135,4.029.808,6.9-.348,2.772-1.672,3.568-3.086,1.56-.617.673-1.874,3.737-1.1,4.264-.864,1.65-.931-.763-.987-.146-.325,1.436,1.515.584-2.177,4.758L523.6,418.42l-.269-.3-2.087.741-.9,1.38-.067,1.56-.471,1.4-1.784,2.267-.325,1.268h0l-1.818-1.189-3.355.415-4.87-1.133-2.805-1.268-.752-5.285Z" transform="translate(-500.479 -363.223)" fill="#007900" stroke="#fff" stroke-width="2"/>
</svg>
