<svg xmlns="http://www.w3.org/2000/svg" width="130.147" height="129.928" viewBox="0 0 130.147 129.928">
  <path id="BR-GO" d="M428.263,341.107l-.976-1.133.236-2.738.662-1.335-.067-2.48-2.054-2.222-13.41-.011-.426,4.186-1.032,2.054.583,3.658,16.484.022h0l-.595,1.706.348,1.762-.763,1.784-1.167,1.4-.46,1.65.954,1.358.954.382,1.593,1.156,1.852,5.117v.673l-2.6,3.041-3.636,3.378-.482,2.4,1.223,1.246,1.01-.527,1.773.64.527.684.2,1.122-.191.8-.819,1.01-.572,2.121,1.335,3.883-3.467,2.312-1.3.224-.965,1.01-.539,1.257-5.487,3.075-.786-.864-4.881-2.087-.617.539-.651.1-1.964.011-1.661-.314-4.331.18-2.256-1L395.2,385.3l-3.265,3.277h-.37l-1.47-1.593-1.706-.337-3.58,1.84-4.163-.7-2.783,1.077-2.5.606-1.582,2.357-1.358,2.76.067,1.122-.943,1.459-.92.314-.943-.18-.5.157-1.055.83-1.84,2.357-.64,2.132.628.684-.011.382-.4.258-.965-.516h0l-.269-.505-2.985-2.514-3.535-.684-1.818-1.739-2.132-.483-1.672-.045-3.759-1.5-.763-.954-3.445-1.751-.752-.685-1.616-.8-1.279-.191-3.03-1.885-3.12.18-4.264-.786-.146-.37.292-.943.64-1.313,1.47-1.975-.09-.471-2.525-1.01-1.279.752-.741-.213-.314-.46L327.5,382l.292-2.9-.213-1.986h0l-1.066-2.469-.2-3.849-1.582-2.458-.18-.8.449-3.827,2.862-4.32.426-3.265.786-.864,2.267-.943,2.155-1.986,1.4-2.267.37-2.188.561-1.133,1.436-1.167.92-1.6.09-1.728,1.964-1.088,1.571-2.94,2.974-.146,3.052-.965.359-.314,2.222-4.7.8-1.077.718-4.6.426-.83,2.155-2.177,1.852-1.133,1.2-.292,1.38.763,1.358-.819,1.56-1.6.943-3.288,1.313-3.221-.011-.9-.539-1.279.651-3.075,1.8-3.467-.135-5.813,1.358-.875,1.156-2.951,2.244-3.557.438-1.2-.18-3.052.393-1.01,1.089-.965.3-1.268-.09-.707h0l.382-.505.224-2.11.741-1.38,2.031-2.345.628-.337-.034,1.919-1.369,2.11-.583,2.626,2.693.449,2.469,1.156,4.41.449,3.467,1.919,4.567,1.6.707-.258,1.829-6.666,1.65-2.682,1.324-1.088,1.29,1.47,1.167,2.11,1.246,4.163.684,3.479,1.279.056.842-.842.337-1.122.628-.606,3.1.382,5.083-.595.247.83L413,289.634l3.512,1.65,3.759.763.774-.09.572-3.7.617.034,1.694,2.94.516.269,2-1.01,2.828-2.334,5.083-1.122H436.1l2.873-1.234,1.953-1.5,6.015-1.593h0l3.052,2.76.022.426-1.6,1.189-.539,2.828.112.37,1.829.943-.067,1.055-.258.426-1.784,1.156-1.335,4.3-.056,1.739.7,3.95,1.908,3.883,3.6,2.94.056.527-.808,1.593-.112.752.752,1.93.258,1.436-.281.864-1.661,2.211h0l-1.122,1.133-3.625-.382-1.01-1.975-2.716-1.661-1.313,1.672.651,4.231-.64.606-.449.146-3.12-1.279-1.313.258-.415.314-.808,3.568.808.112.55,1.3-.64,1.055-.819.786.045,2.132.471.685.595.213.774,4.78-.595.595-3.77,1.01-2.57,1.694Z" transform="translate(-323.54 -275.335)" fill="#007900" stroke="#fff" stroke-width="2"/>
</svg>
