<svg xmlns="http://www.w3.org/2000/svg" width="129.235" height="130.151" viewBox="0 0 129.235 130.151">
  <path id="BR-MS" d="M372.85,405.859l-.449,2.76-.314.449-1.683.875-1.481.045-.527.247-1.369,1.156-2.233,3.007-.819.729-1.133.337-.7,1.885-.18,3.288-2.906,4.085-1.077.584-.258.426.348,2.166-.09,1.066-1.358,2.626-2.244,2.536.393.954-.314,1.358-1.616,1.156-.449,1.358-1.941,1.9-1.414,2.738-2.188,2.1-8.484,5.083-1.414,1.279-.83,1.728-.943,1.212h0l-6.071,2.547-1.246.92-1.044,2.615.022,1.29-1.627,3.995-.752.763-1.863,1.133-1.246.359-.37.393-1.762,8.887-.4.92-2.671,1.751h0l-2.861-2.615-3.827-2.121-4.477,2.211-.763.842-1.863.55-2.9.483-2.648-.516-1.133-.729-.527-4.792-.359-.786-1.01-1.066-.258-2.772.572-1.5-.718-.886-.1-.494v-3.221l-1-2.211-.673-3.075-.056-.808.662-1.526.022-1.807-1.762-1.223-.426-.9-.18-2.424-1.852-2.042-2.435-.292-1.694.348-2.054-.325-2.76-2.2-.628-1.672-1.728.37-2.435,3.075-1.122-.673-1.93.909-1.212.18-1.953-.774-2.873-.55-3.883.258-4.107-.8-.539-1.021-2.233-.146-1,.583-2.805-.987,1.021-8.158-.483-2.671.673-1.593,1.1-1.638.673-6.767-.741-2.615-.056-1.941-.853-1.077-.483-.1-.55.729-.718-3.658-.887-2.1-1.358-2.267-.393-2.054,4.522-2.581.853-.987-4.713-4.332,6.037-12.815,1.257-.067-.314-2.39-.83-.146,3.625-11.592.741-1.3-3.467-6.565.034-2.143h0l.785.224,1.145,1.234,2.413,1.706,6.306-2.211,2.3-2.244,2.267-3.31.1-1.313,1.571-1.627,2.906.034,1.751-.247.864.382,1.863-.572,1.515-1.4,2.267-.55,1.425.224.853,1.29,3.131,1.4,2.94.527.729.393.3.965.875,1.145,3.4,1.3,1.414,1.246,1.391.64,5.072-.707,1.414-.9.55-.954,1.6-.685,2.738.079,1.784,1.167.337,1.537.269.281,1.111.045,2.39-.987,1.133.067,6.307-6.744,1.5-.146-1.38,7.417-2.02.786-1.863,3.176-.213.516.168.595,1.459.123,1.953,1.425,5.184.3.64-.64,2.985-.09.976.09,1.313.64,1.739-.348h0l.213,1.986-.292,2.9.258,1.246.314.46.741.213,1.279-.752,2.525,1.01.09.471-1.47,1.975-.64,1.313-.292.943.146.37,4.264.786,3.12-.18,3.03,1.885,1.279.191,1.616.8.752.685,3.445,1.751.763.954,3.759,1.5,1.672.045,2.132.483,1.818,1.739,3.535.685,2.985,2.514.269.5h0l-.651.281-1.111,4.691.662,3.6Z" transform="translate(-246.457 -351.672)" fill="#007900" stroke="#fff" stroke-width="2"/>
</svg>
