<svg xmlns="http://www.w3.org/2000/svg" width="204.225" height="193.553" viewBox="0 0 204.225 193.553">
  <path id="BR-MT" d="M208.882,308.538l1.65-1.6,4.612-2.884.584-2.749,1.6-4.242,1.044-1.212,1.84-.595.483-.46.651-.943.584-2.525,1.863-2.256.628-2.514.079-1.919-.651-1.672.045-2.3-1.717-3.748-1.01.034-.651-.572-.483-3.647.157-1.481,1.526-1.212,1.571-1.964.191-.842L221.9,263.2l-1.2-.483-1.246-.123-3.928.1-1.369-1.246.269-.628-19.256-.056,1.01-10.1-1.683-3.086-.3-1.975.034-.9,1.122-3.95-.426-2.166,1.055-1.874-.931-2.547-.168-1.56-.292-.685-.875-.527-.067-.393,1.448-5.6.853-1.593-.673-1.391-1.571-1.089h0l53.7-.359,1.358-.819,1.324-5.858,1.549-4.735-.516-2.177-.741-1.537-.112-.954.471-.954.965-.718,1.347-2.042.3-1.133-.382-.943.067-.853.224-.685,1.324-1.347h0l1.313,1.212,2.749,4.556.449,1.975,1.537,4.444,1.481,2.166.864,1.818-.258,2.738.539,2.693.819,2.469,1.717,1.246,3.366,3.086,3.793,1.908.258,1.055-.045,1.234.258.55,1.066.449.92-.191,1.829.5.606.808.224,1.212.393.359,1.537-.5,4.141,1.672,38.2,2.716,70.662,3.905h0l-.729,1.145-.628,2.121-1.234,1.4-.494,3.524-.483.954-.415.3-2.177,5.936-.606,3.333-.045,3.31-2.11,6.722.067.965,1.56,1.5-.18.976-.92,1-.056.561,1.234,2.525-.527,3.714.011,1.762.583.651.494,3.423-.83,3.1,1.1,3.748,1.077.572.9.022h0l.09.707-.3,1.268-1.089.965-.393,1.01.18,3.052-.438,1.2-2.244,3.557-1.156,2.951-1.358.875.135,5.813-1.8,3.467-.651,3.075.539,1.279.011.9-1.313,3.221-.943,3.288-1.56,1.6-1.358.819-1.38-.763-1.2.292-1.852,1.133-2.155,2.177-.426.83-.718,4.6-.8,1.077-2.222,4.7-.359.314-3.052.965-2.974.146-1.571,2.94-1.964,1.089-.09,1.728-.92,1.6-1.436,1.167-.561,1.133-.37,2.188-1.4,2.267-2.155,1.986-2.267.943-.786.864-.426,3.265-2.861,4.32-.449,3.827.18.8,1.582,2.458.2,3.849,1.066,2.469h0l-1.739.348-1.313-.64-.976-.09-2.985.09-.64.64-5.184-.3-1.953-1.425-1.459-.123-.168-.595.213-.516,1.863-3.176,2.02-.786,1.38-7.417-1.5.146-6.306,6.744-1.133-.067-2.39.988-1.111-.045-.269-.281-.337-1.537-1.784-1.167-2.738-.079-1.6.685-.55.954-1.414.9-5.072.707-1.391-.64-1.414-1.246-3.4-1.3-.875-1.145-.3-.965-.729-.393-2.94-.527-3.131-1.4-.853-1.29-1.425-.224-2.267.55-1.515,1.4-1.863.572-.864-.382-1.751.247-2.906-.034-1.571,1.627-.1,1.313-2.267,3.31-2.3,2.244-6.307,2.211-2.413-1.706-1.145-1.234-.786-.224h0l-.741-.752-.359-.9.606-.8-2.738-2.413-1.436.707-.584-.056-1.313-.763-.5-.786-2.267-1.582-2.121-.853-.337-.359-.337-1.257-.258-3.288-.685-1.986-.213-4.107.988-1.84,1.279-1.223.382-2-.056-2.121-1.077.067-.449.673-.426.18-30.141-1.212-1.178-14.2-6.026-6.879,5.476-.067L217,325.426l-2.962-5.97-.55-2.211.292-1.189.685-.617.729-1.436-1.616-3.288-3.49-1.167Z" transform="translate(-190.531 -194.829)" fill="#007900" stroke="#fff" stroke-width="2"/>
</svg>
