<svg xmlns="http://www.w3.org/2000/svg" width="197.639" height="161.354" viewBox="0 0 197.639 161.354">
  <path id="BR-MG" d="M548.386,372.957l-1.021-.617-2.85-.909-1.773.09-1.212.359-.943.685-2.446.325-1.5-.146,1.874,2.547-.022.909-1.268-.123-1.178-.83-.348.022-2.435,1.47-1.313,2.166.337.786,1.492.752.584.741-.034,2.155-.337,1.728.236.46,1.47.393.191,1.93-.359.471-1.066.269-1.089-.034-.9-.393-1.661.1-.482.617.55.8.853.314.505-.325.584.1,1.234,1.425,1.425,3.153.325,2.727L535.2,400.4l-1.919,2.345-1.391.965-.292.494-.269,1.93-.987,2.57-1.246,1.425-1.089,3.636-.617.359-5.779-.034-1.93,2.312-.18.471.662,3.5-.64,1.459-.494,2.626.325.157h0l-2.839,2.637-1.391.3-.628.561.83.786L512.68,435.7l-2.132,4.163-.1.842,1.616.146.325.685-.236.583-2.839,1.1L498.641,448.3l-1.537.224.022-.516-.55-.191-2.839-.3-.64.067-1.818,1.055-1.4.18-3.591.09-.4-.359-.572.09-4.6,2-1.178.864-1.919.864-.561-.314-2.906.191-3.265,1.5-2.716.83-.763.55h0l-1.4.819-2.469.247-2.166,1.145-1.38,1.391-2.009.752-2.671.281-2.626-.09-.011-.55.393-.55-.1-.393-1.335.37-.2,2.581.269.258-.056.943-.842,1.1-1.459.359-.64-.483-4.051,1.122-.213-.595-2.256.269-1.257-.281L438.64,460.1l1.369-.8-.584-1.919-2.02-.931-2.009-1.38-.8-1.807.595-1.751.213-3.871-.292-3.3L437.2,441.3l.786-2.446.056-1.425-.258-.415-4.152-1.481-1.122.056-.314.4-.875.348-1.807.056.034-.954-.931-2.233L427.16,431.2l-.415-2.48-.348-.7-.887-.83.213-2.177,1.706-2.278.067-.628-.449-1.739-2.11-1.358-.651-.685.325-2.66.64-1.133-.224-1.167-3.669-3.759-1.459.325-.954.718-1.852-.875-2.671.123-.348.685.224.516-.494,1.111-3.12.763-1.246-.483-1.694-1.627-1.133,1.4-9.179.763-.516.539-.539,1.335.3,2.85-.46.494-1.335-.584-.011-3.12-.281-1.077-.4-.438-.628-.056-.292.213-.46,1.268-.752,1.055-.606.359-.7-.022-1.358-2.357-.37-1.593.157-1.021-1.885-.887-2.446-1.593-2.233.662-1.818-.247-1.874.393-4.814-1.077-2.861-.09-1.941-1.739-.842-.157-1.683.684-1.6,1.9-2.155.415-2.413,1.246-1.369,1.268h0l.348-2.94-.662-3.6,1.111-4.691.651-.281h0l.965.516.4-.258.011-.382-.628-.684.64-2.132,1.84-2.357,1.055-.83.5-.157.943.18.92-.314.943-1.459-.067-1.122,1.358-2.76,1.582-2.357,2.5-.606,2.783-1.077,4.163.7,3.58-1.84,1.706.337,1.47,1.593h.37L391,381.844l4.634-2.962,2.256,1,4.332-.18,1.661.314L405.85,380l.651-.1.617-.539L412,381.452l.786.864,5.487-3.075.539-1.257.965-1.01,1.3-.224,3.467-2.312-1.335-3.883.572-2.121.819-1.01.191-.8-.2-1.122-.527-.684-1.773-.64-1.01.527-1.223-1.246.483-2.4,3.636-3.378,2.6-3.041v-.673l-1.852-5.117-1.593-1.156-.954-.382-.954-1.358.46-1.65,1.167-1.4.763-1.784-.348-1.762.595-1.706,1.425-.135,2.57-1.694,3.77-1.01.595-.595-.774-4.78-.595-.213-.471-.685-.045-2.132.819-.786.64-1.055-.55-1.3-.808-.112.808-3.568.415-.314,1.313-.258,3.12,1.279.449-.146.64-.606-.651-4.231,1.313-1.672,2.716,1.661,1.01,1.975,3.625.382,1.122-1.133h0l.572,2.7-1.6,3.86.449.258,1.5-1.021.786-1.122.808-.146,2.39.426,1.167-.864,2.076-2.884,1.111.168,1.6-.595,2.031-1.739,1.066-1.313,2.267-.46,3.782-2.087.718-1.246,4.792-3.4,4.287-1.773,2.02.1,1.347.561,2.446.034,2.559.595.954.516-1.448,3.075-.168,1,.292,1.672.685.561,5.981,1.638.718-.191.909-1.257,2.11-1,1.986-.292,3.064.842,1.234.606,4.881,4.085,1.1-.2,2.435,1.818,2.839,1.369,1.044.247.572-.236,1.717,1.391,4.926-1.38.426.2L528.267,328l.494,4.444.64-.236,2.929.5,1.65-.561,1.481-1.111,2.233.168,3.063.628,2.536,1.212,2.458.684,2.379-.034,3.176,2.772.819.426,1,.079.875,1.145.471,1.313-1.65,3.456-5.566,4.736-.168,2.974.628,1.145v.471l-1.145.8-2.783-.269-.92.987-.92,3.7-.595,4.938.247.281.393-.213.224-.505.718-.269.651,1.38-.247,1.694.168.572,4.646,3.434.595,1.167.011.595-.763,1.515Z" transform="translate(-357.912 -304.281)" fill="#007900" stroke="#fff" stroke-width="2"/>
</svg>
