<svg xmlns="http://www.w3.org/2000/svg" width="124.955" height="164.635" viewBox="0 0 124.955 164.635">
  <path id="BR-MA" d="M466.708,132.887l-.045.37-2.289,2.413-.483.191-.045,1.616,2.211-1.908.763-1.358,2.379-1.773,1-1.279,1.156-7.1,1.29-.786,1.246-.135,1.874-1.032.729-.146.516.135.09,1.829-.224.5-1.593,2.1-3.6,1.964-.034.808.819.135.5-.909,1.291-.348.247.931-.662.572.281.337,4.724-5.577.965.37,2.9-1.044,4.534.483-.516-2.7.685-.258,2.716.09,2,.426,2.951,1.178,1.167.123,2.413,1.549,1.571.034,1.414,1.459,2.121,1.481,2.805.651,1.3-.213.628.853.382.056,1.784-.1,2.76.741.292-1.01-.752-.527,1.874-.426.64.123-.1.471h0l-.516,1.6.258.808.707.606-.426,1.717-2.009,2.547-4.635,4.455-3.726.516-.9-.18-3.277,3.815.045,2.02-.987,2.054-2.121,2.076-.92,2.222-.718.191-.864,1.178.4,2.155,1.38.931.426,1.436-.314,1.638-1.279,3.221,1.773,3.153.617,3.344-.123,2.727-.236.617-4.6,4.96-.191,2.783.135,2.368.572,2.581,2,2.289,1.807,1.021.191.561.146.943-.438,2.469-.325.494-.135,1.358-.561,1.638-1.358,1.47-2.57.325-.729-.314-.931.045-2.727.965-1.706.123-2.805-2.042-1.133-.236-1.638.213-1.133.673-1.257.292-.258-.337-.943.269-.561.247-2.132,2.143.011.516-.707.976-2.256,2.244-2.626,1.021-3.221,2.873-1.492.595-1.178.045-1.908,1.717-1.212.4-2.929.359-3.052.853-2.39,2.188-1.1,3.333-.438,3.333-.707,2.6-1.627,3.075-.337.247-.382.92-.146,1.706-1.347,2.783-1.908,1.571L442.885,236l.8,2.177.527,3.568,1.941,3.434-.045.584-.853,1.571-.146,7.137-1.29,2.749-.292,1.189-.056,2.155h0l-1.436-.741-.685-.92-.92-.5-1.111-.325-2,.224-.8-.2-1.515-2.244-1.111-3.209-2.39-1.818-.157-1.852,1.84-2.031-.09-.595-4.354-2.188-.7-1.178-.067-1.863-.842-1.784-1.055-.774-2.334-.314-.224-.471.292-.8,2.951-2.85-.415-1.47.819-3.007.774-1.6.64-.617,1.5-.606,3.8-.393-.438-1.515.718-3.647-.09-1.975-2.02-1.358-4.792,1.055-2.413,1.5-2.547-3.389-1.021-.954-3.366-4.657-.987.079L416,209.957l.685-1.335-.123-.988-.281-.382-1.537-.269-.471.3-2.166-1.492.2-.8,1.975-.741,1.964-2.289.281-1.784-.314-1.122.348-2.648,1.986-6.912.011-.483-.763-1.279-.258-1.212.236-4.174-.718-1.683-.527-3.916-.943-1.156-3.815-1.616-1.369-.022-.314-.359-.09-1.156-.662-.774-1.953-.325-1.077.584-1.571-.1-3.12-1.694-.965-.067-2.2.595-2.94,2.076-.595.718h0l-.55-.09,16.507-13.275,2.637.258,1.313-1.032,1.739-2.435.482-1.29,1.739-1.313.7-3.232,1.257-.516,2.738-2.6.527-1.358.325-2.132,1.8-5.263,2.2-1.728,1.661-1.975.931-1.627.516-1.436-.2-2.042.887-.909-1.167-1.773,4.13-3.467-.146-1.84.561-2.671,1.953-1.762.4-.8,1.01-3.389.09-1.807-.483-.595-1.111.18-.3-.55.056-.7,1.279-.168.64-.83.8-4.926-.18-1.549.527-1.156.864-.5h.707l.269-.269-.067-.606.382-.842.651-.595,1.5,1.1.505,2.065,1.335.135.864-1.526.685,3.288,1.111.045.325-.55.079-1.055.954-.045,1.9.595.561.774-1.6,1.908.752.786.022.617,1.358-2.289.55-1.728h.5l.449,1.145v.651l-.976,1.032-.3,1.111.09,3.041.292.37.527.135.651-.157,1.077-1.044-.527-1.122.157-.673,1.481-1.6,1.178-.281,2.39.662,1.683-1.246.056,1.032-.4.236-1.268,1.717.662.651.112-.415,1.4-.673.651.887-.157,1.358,1.829,1.964.965-.494,1.773.752.864,2.693-.123,1.066-2.458,3.063-.426,1,.112.741.673-1.156,1.964-1.885.931-.034.976.909.583,2.121-.3,1.38-1.088.213-1.156,1.021-1.3,1.672.079.864-1.3,2.637-.7,3.95.236.382.976.258Zm.583.5-.067-.886.595-1.717-.46-1.2.146-.741,1.021-1.391.617-.213.056,2.637-.247,1.5-.9.673Zm-7.07-28.907-.494-.516-.09-.673.9-1.257.943-.034.763.471.112.382-.213.4-1.919,1.223Zm3.928,4.691-.325-.337.067-.595,1.19-1,.539.079.561.954-.157.685-.449-.191Zm-15.89-5.4-.236-.056,1.066-4.017.337.1.034.258L449,103.5l-.741.281Z" transform="translate(-391.99 -97.551)" fill="#007900" stroke="#fff" stroke-width="2"/>
</svg>
