<svg xmlns="http://www.w3.org/2000/svg" width="118.581" height="41.129" viewBox="0 0 118.581 41.129">
  <path id="BR-PE" d="M564.523,231.4l-1.369-3.411-.011-1.055-2.368-.965-.561-.415-.505-.931.685-1-.022-.7-.505-.359-1.122.011-.483.494-.325,1.953-.483.168-.438-.292-.606-1.852-1.773-1.29-3.355-.449-2.648-.864-1.515-.909-.931-1.616-1.672-.628-.662.123-2.839,1.638-1.852.494-.864,2.3-2.5.5-.325.281.281,1.526-.191.662-1.234,1.391-2.682,1.156-.718-.067-.864-.595-.853.191-.561.976-.864,4.006-3.221.988-.92,1.032-1.077.258-2.065-.7,1.032-1.885-.292-2.244-2.48-1.021-.808-2.177.067-3.063-.494-.572-3.153-1.549-2.469-.325-1.3.292-1.01-.449h0l2.94-1.425,2.211-1.919.606-.976,2.57-1.492,1.088-.314L523.373,210l.83-1.975.067-2.547-.325-.606-1.818-1.773.079-2.458-.673-1.268-.067-1.066.123-.5.584-.37,2.009-.18h0l5.532.224,1,.269,1.829-.213,2.4-.9,1.448-.112,3.456.471,3.2,2.132,2.054.931.516,1.111,1.133,1.2,1.526.539.875.64.707,1.84,1.852-.056,1.728-2.57,1.2-.931,1.784-.55h0l.449.1,1.571,2.143,1.111.37,1.694-.359,1.044-.819.426.09.707,1.391-.056.763.864.37,2.951-1.088,1.829-.258,1.706-1.84,3.03-2.11,1.178-.348,1.661-.976,1.044-1.694,2.491-1.414,1.661-.46,3.928,2.155.561,1.56-.123.337-3.366,1.2-.415.875.045.527.808,2.1-.191.483-2.839,2.962-.045.5,1.694-.281.494-.325,1.279.359.2.337-.269.55.393,2.514L585,212.052l1.8.886,1.852-.943,1.5-.18,2-1.717.449-.539-.011-.606-.438-.819.606-.853,1-.774,2.042-.112.617-.718,1.807-.988,4.354.292,2.446-.325.9-.595v-.673l1.279.022,2.256-.5,2.132-1.156.5-2.02,1.661-1.436,2.592-1.2,2.974.236.92.292,2.805,2.312h0l.987.258.617,1.369-1.425,1.93-.123.617.011.539.786.415.3.561.213,1.189-2.2,7.159-3.647,10.043h0l-.3-.236-3.254-.3-2.155-.909-1.65.213-2.873,1.448-2.514-.954-2.244.269-1.739,1.391-.135.5-2.446,2.57-2.031,1.246-1.3-.056-2.087,1.189-1.313.123L589,230.186l-2.805.729-2.143-.539-2-1.178-2.132-2.379-2.861-2.267-1.212.135-1.874-.337-1.122-1.369-.92.673-.1.774-2.671,3.692-2.435.853L566,230.2Z" transform="translate(-507.219 -194.069)" fill="#007900" stroke="#fff" stroke-width="2"/>
</svg>
