<svg xmlns="http://www.w3.org/2000/svg" width="116.525" height="83.421" viewBox="0 0 116.525 83.421">
  <path id="BR-PR" d="M408.514,506.851l-5.88-.034-.37.494-1.953.269-.853-.079-.123-.438-1.762.64-1.515,1.6L392.3,511.7l-1.616-.18-1.38-.7-3.512-2.918-1.156-.438-.853-.011-3.187.819-2.615.191-.909-.034-1.593-.853-1.246.157-1.717.729-.662,1.65-.819.976-2.1,1.1-4.006-.46-2.244,1.29-.808.864-.774,1.784.954,3.355-.976.965-1.032.022-.842.426-.191.55-1.492-2.121-4.769.146-4.219-.483-1.773-1.324-.18-.46-1.156-.707-4.78-.4-5.936-1.885-2.626.64-3.019-.034-2.267-1.582-.359-.572-1.189-.269-.595-.011-.8.415-4.073-.022h0l-.247-1.358-2.839-4.691.022-2.906-1.111-3.232-3.838-2.659-1.223,1.268-2.379-.123-1.234.483-1.2,1.01-1.638-1.212-.92.067-.314-2.469.741-1.762,1.2-1.425,1.369-2.446.067-.382-.55-.842.022-1.391,1.01-4.085,1.414-3.389-.281-2.581,1.436-2.671-.236-1.145-.943-.987-.348-1.8.741-1.189.887-.606h0l2.671-1.751.4-.92,1.762-8.887.37-.393,1.246-.359,1.863-1.133.752-.763,1.627-3.995-.022-1.29,1.044-2.615,1.246-.92,6.071-2.547h0l3.658-2.57,4.3.729,4.5-.123,3.669.325,1.358-.7.393-.673.819-.415,1.313.325,1.661.875,2.828.516,2.962,1.223,1.47.146,1.2-.606,2.9-.011.875,1.122,1.964.943,3.939.9.707.572.8,1.481,1.941.079.471-.382,1.852.168.741.606,5.959.146,3.333-.954,1.268,1.739,4.029,3.176,1,1.975.011,3.075-.438.651-.18.909.426,2.065,1.459,1.694-.09,1.975-.4.628,1.672,3.366,1.358,1.29.752.314.561.763-.056,1,1.032,2.211.673.325.281.494-.281,1.178-1.425,2.39.359,2.289.673.426,1.133.236,2.671-.135,3.838-.595.561.438,1.773-.213,1.784.146,1.807,1.414-.157.46-1,.729-.774,3.7.393.875,1.2.595.729-.954,1.234-3.1.853-.191,2.4.651-.449,2.188.819,3.7,1.593.651.18,1.481h0l-1.515,1.145-.685,1.661-.617-.135.3-2.177L416.4,493.4l-1.582.314-1,.55-.976-.022-.382-.438-.64-.191-.606.415-.314,1.044.584.9-.819,1.077-.337.112-2.783-.595-.887-.606-.505.135-.2,1.01.382.415,1.807.628,1.571-.281,2.39.673.3.539-1.089.763-1.728,3.12-1.391.864-2.716.64-.224.505,3.31-.224.168,1.335Z" transform="translate(-301.837 -439.741)" fill="#007900" stroke="#fff" stroke-width="2"/>
</svg>
