<svg xmlns="http://www.w3.org/2000/svg" width="71.32" height="41.851" viewBox="0 0 71.32 41.851">
  <path id="BR-PB" d="M618.042,202.318l-2.805-2.312-.92-.292-2.974-.236-2.592,1.2-1.661,1.436-.5,2.02-2.132,1.156-2.256.5-1.279-.022v.673l-.9.595-2.446.325-4.354-.292-1.807.988-.617.718-2.042.112-1,.774-.606.853.438.819.011.606-.449.539-2,1.717-1.5.18-1.852.943-1.8-.887-1.066-1.055-.393-2.514.269-.55-.2-.337-1.279-.359-.494.325-1.694.281.045-.5,2.839-2.962.191-.483-.808-2.1-.045-.527.415-.875,3.366-1.2.123-.337-.561-1.56-3.928-2.155-1.661.46-2.491,1.414-1.044,1.694-1.661.976-1.178.348-3.03,2.11-1.706,1.84-1.829.258-2.951,1.088-.864-.37.056-.763-.707-1.391-.426-.09-1.044.819-1.694.359-1.111-.37-1.571-2.143-.449-.1h0l-.191-.281,1.335-1.257,1.807-3.916-.382-1.335-.774-.09-1.391-1,.022-1.863-.393-.808-.651-.325-.269-.46.135-1.044.191-.426,1.223-.707.741-1.47-.583-1.47,1.156-3.366.943-1.29.09-.606h0l.64-.516,2.166,1.84,1.01.471,3.232.685,1.3-1.268L566.4,181.3l.92-.8.112-1.167.46-1.066,3.568-1.358,1.6-.135,3.658-1.167.718.09.595.494.011,1.335-3.355,3.6-.494,1.077-.426,1.953-.46.426-.954.281-.236.348-.09,1.93,3.961.584.359.258.348,1.549.325.258,3.535-1.414,1.986-.09,2.188.337,1,1.313-.584,1.728.931.83,2.637-1.044.561-.83.617-1.358-.527-1.055-.18-1.593.539-.662,1.133.359-.595-1.717-.808-.875.348-1.661,2.042-1.515,1.549-.056.471.438-.112,1.122.7.55,3.838.449.595.393,6.542-.438,2.435.337,2.761,1.234,1.167-.449,3.928.236,1.044-.269h0l.1,2.693,1.627,4.926.067.718-.2,1.055-.415.5-.034.988.651-.83.572-1.683.011,2.222.662,1.133-.3,5.813-.4.673Z" transform="translate(-549.498 -174.591)" fill="#007900" stroke="#fff" stroke-width="2"/>
</svg>
