<svg xmlns="http://www.w3.org/2000/svg" width="99.55" height="144.758" viewBox="0 0 99.55 144.758">
  <path id="BR-PI" d="M514.305,127.432l1.47.135.774-.258,2.514.572,1.111.954.359.673h0l-.123.9-1.223,2.076-1.773,2.211-.2,1.638.325,1.448,2.02,5.3,3.535,7.2.494,1.941,1.526,1.784-.022.853-.83,1.526.886,4.343-.539,1.8,1.122,2.256.673,3.355-.662,1.773-.9.651,1.032.774.123.426,1.055,9.157-.269.5.853,2.884,1.178,5.835,1.133,3,1.47.729,2.873.527.864,1.3-.011.774-1.683,2.525-1.279,3.49.09,1.089.763.763-.067,1.481h0l-2.009.18-.584.37-.123.5.067,1.066.673,1.268-.079,2.458,1.818,1.773.325.606-.067,2.547-.83,1.975-4.365,4.343-1.088.314-2.57,1.492-.606.976-2.211,1.919-2.94,1.425h0l-.505,1.3-1.683,2.581-1.178.752-.886-.2-2.244.426.123,2.693-2.087,2.02-.359-.056-.7-.7-2.424-.011-.92,1.1-.864.4-3.063.382-1.694,1.5-.92,1.369-1.908.112-1.661.718-3.366.123-.92-.314-.213-.314.146-.741-1.919-1.1-1.492-.438-1.56.617-2.39.483-.359-.2-.46-1.044-1.683-.516-2.188.022-3.636,1.852L475.3,242.9l2.514,4.982.135,1.29-.325,2.884-.281,1.021-.808.965-3.31,5.667-3.333,2.716-1.515.471-1.661-.595-1.5-.191-2.469.842-1.313,1-.752.976-1.279.426-.842,1.627-.37.236-2.368-.2-2.02.584-4.691-2.076-1.986-2.794-.595-2.48-.741-1.167-1.616-1.5-2.615.022h0l-3.3-.236h0l.056-2.155.292-1.189,1.29-2.749.146-7.137.853-1.571.034-.572-1.941-3.434-.527-3.58-.786-2.177.819-2.244,1.908-1.571,1.347-2.783.146-1.694.382-.931.337-.236,1.616-3.075.707-2.6.438-3.333,1.1-3.344,2.39-2.188,3.052-.853,2.929-.348,1.2-.415,1.908-1.717,1.178-.045,1.5-.584,3.209-2.884,2.626-1.021,2.256-2.244.707-.976V197.2l2.132-2.155.561-.247.943-.269.258.337,1.257-.292,1.122-.673,1.638-.213,1.133.236,2.817,2.042,1.694-.112,2.738-.965.931-.045.729.314,2.559-.325,1.358-1.47.561-1.638.135-1.358.325-.494.438-2.469-.146-.954-.191-.561-1.807-1.021-2-2.278-.572-2.581-.123-2.368.191-2.783,4.6-4.971.236-.617.112-2.727-.617-3.344-1.773-3.142,1.279-3.221.314-1.65-.426-1.425-1.38-.943-.393-2.155.864-1.178.718-.191.92-2.222,2.121-2.076.987-2.054-.045-2.009,3.277-3.827.909.18,3.714-.516,4.634-4.455,2.009-2.547.438-1.717-.718-.595-.247-.808.516-1.616h0l.819.135,1.65.976.572.572-.146.348Z" transform="translate(-436.609 -123.904)" fill="#007900" stroke="#fff" stroke-width="2"/>
</svg>
