<svg xmlns="http://www.w3.org/2000/svg" width="228.093" height="218.577" viewBox="0 0 228.093 218.577">
  <path id="BR-PA" d="M387.96,259.067,317.3,255.162l-38.2-2.716-4.141-1.672-1.537.5-.393-.348-.224-1.223-.617-.808-1.829-.5-.92.191-1.066-.438-.258-.561.045-1.234L267.9,245.3l-3.793-1.908-3.366-3.1-1.728-1.246-.808-2.469-.539-2.682.258-2.738-.864-1.829-1.492-2.166-1.537-4.433-.438-1.975-2.749-4.556-1.324-1.212h0l-.64-.628-.168-2.2-.718-1.414L246.209,209l-1.2-.651-.415-.64-.931-2.626.034-1.268.651-1.089,1.627-1.268.875-1.47L280.4,127.9l-2.031-1.874.146-.875-.213-.539-1.56.393-.954.685-2.1-.875-1.234-2.435-3.019-1.627-1.425-1.5-.09-.673-1.481-.92-1.537-.168-2.525-.729-2.671-1.47-2.11-.752-1.515-1.223-.707-1.01-5.139-2.85-5.207-4.231-.337-.494-.045-1.044-.617-2.054-2.065-1.38-.786.213-.4-.224-2.054-2.222.056-2.368.393-.774-.2-.46-1.9-.954-.269-.763-.2-2.547.483-1.627-.449-5.454h0l-1.784-19.043h0l.842.359.483.651-.022.539.5.449,1.032.314,1.537-.8.527-.909,3.041.258.909-1.178L243.1,61.68l2.009-.4,1.582-1.829,2.962,1.133,2.11.034.606-1.706,3.737-1.818,2.211.438,1.3-.123.55-.281,1.347-1.661.449-1.571,1.638-1.234.965-.123.729.516,2.368-1.268.46.123.415,1.111.819.5,2.278.539,1.807.281.628-.673,1.874-.438.875.314.92-.011.965-.382,2.514.337,5.24,1.549,1.077-.157,1.122-.976-.034-2.559L286.3,48.54l-1.391-.707.55-1.885,1.47-1.627.314-1.246.348-.191.8.213.931.853,2.637,1.246L305,42.581l1.762,1.9,1.145.067.494-.325h0l.7.64.415,2.581-.7,1.459-.281,5.095.269,1.616.348.606,1.313.022,1.212-.325,3.8.415,1.448.55,2.166,1.178.752.9.55,1.436,1.335.135,1.279.943.9,1.1.943.3,1.492-.157.426-.471,1.055-.157,3.187,2.985.763-.034.55,1.324-.763.258-.213.808L332.2,70.6l2.267,2.536,2.884.819.191.37-.483,3.524.213,2.368.752,1.694.7.628.662,2.031-.146,1.773,1.683,3.905.92.213.875-.4L346,93.74l-.09,2.727.46,1.055,1.066.213.37.527.348,1.773-.236.774.123,1.459,2.1,1.56.483,1.683,1.627,1.156,3.131.763,1.459-.135.864-.382,1.055.067h0l-.595.83.325,1.784-.191.595-1.448,1.246-1.56.191-.561-.2-.943-.887-.741-.168-3.793,1.773-.415.606-1.8.808-.707-.022-1.739.662.045.651,7.249-1.189.988.741.146.516v.741l-.7.561.337.4.707-.224.965-1.122,1.145-.011.595-.3.673.135,1.2-.471,1.279-.64,3.681-2.626,1.683-.393,2.065-.909,3.546-2.065.606-1.122.752-.584,2.345-1.133.741-.808-.281-.752.236-.46,1.268-.314,1.223.067.46.236.426,4.264-.584,2.9.37,1.818.909,1.8,1.47,1.515.337,1.84-.135.527-2.065,2.065-.527.146-.976-.584-2.042-.584-1.414-.348-1.044.157-2.39-1.167-.292-1.257-.988-.595-2.559,4.287-.685,2.66.763,3.333.539.718,1.032.7-1.133-1.279-.483-3.019.135-.584,2.884-4.735,2.592,1.324.123.5,2.839,2.749-.281,2.267-.83.617.449,2.615.583,1.268,1.257.842.83.168.583.55-.382-.718-.864-.269-1.347-1.167-.247-.763.382-4.713.92-1.335,1.6.819.931,1.347-.1.887,1.347.965.281-.325-1.122-1.414-1.032-2.357v-.494l2.536-2.6,1.818.1,2.166.718.382.628-.684.662.359.314.539.034,1.156-.191,1.492-1.01,4.59-1.077.864.224,1.953,1.189,3.557-.471,1.2-.46,1.145-1.133,1.1-.662,1.953-.572.864.079.067.842-2.289,4.511-.269,1.683-.516,1.2-.931,1.156-.011.987.651,1.593-.359,2.772.988-1.335.011-1.571,1.728-3.366,1.268-3.58,1.257-1.751.3-.3.853-.056.651-.393,2.042-.258.988-1.515,1.694-1.9,1.526-2.536.583-.516.887.55.7-.516,1.818,2.626,1.335.662-.056-.83-.393-.842.7-1.133,3.939-.572-1.156-.359-3.939.516-.348-.236.325-2.727.572-.325.752.426,1.145.123,1.2-3.479-.763-1.56.034-.763,1.313-2.031,3.187-2.783.4-.09,1.246,1.279,3.288-2.345.516-.079.449.5.112.64-.359.752,1.2-.18.909-.651.4-.875.707-.213.314.168.83,1.56,1.492,1.347.224-.628L437.7,100l-1.077-.55-.157-.325-.146-1.347.191-.471.494-.213,2.559.292,1.324.729.7,1.145,1.829.8,1.852-.875.595,2.4-.561.348-.034.662,1.032-.584,1.3-2.637.426.258-.258,1.492.46.494,2.817-.292.5.729.516,1.885-.673,1.066.954-.561.292.415,2.121.157,3.961-1.391-.348,1.773-.842,2.054,1.65-.55.662-.7.707,1.818h0l-.864.5-.527,1.156.18,1.549-.8,4.926-.64.83-1.279.168-.056.7.3.55,1.111-.18.483.595-.09,1.807-1.01,3.389-.4.8-1.953,1.762-.561,2.671.146,1.84-4.13,3.467,1.167,1.773-.887.909.2,2.042-.516,1.436-.931,1.627-1.661,1.975-2.2,1.728-1.8,5.263-.325,2.132-.527,1.358-2.738,2.6-1.257.516-.7,3.232-1.739,1.313-.483,1.29-1.739,2.435-1.313,1.032-2.637-.258-16.507,13.275.55.09h0l2.57.909,2.1-.269,1.448.135,1.145,1.863.438.348.976.157,1.414,1.313-.045.707-.415.752-.808.415-1.088.079-.325.314.1,1.582,1.133,1.5-1.032,3.086-.718.539-1.638.516-.281.516.325,1.347-.213,1.5-1.459.168-1.694,1.5-.954,1.425.168,1.694-.269.561L412.5,204.34l-3.827,1.279-2.772,2-.213.393.483,2.458.067,3-1.436,2.357-1.582,1.885-.168.64.191.988.662,1.077,1.874,1.953.842.359.168.337-.741,4.534-1.975,5.779-1.212.909-1.908,3.636-.2,1.111-1.055,1.728-.83.954-1.178.18-1.537,1.032L395,245.074l-1.358,1.885-1.324,1.223-1.29,1.773-1.268,5-1.8,4.107ZM411.7,112.839l-5.072,2.2-3.8.584-2.267-.348-.729,1.268-2.065,1.335-.808-.685-.684-1.717-.258.314.471,1.38-.382.909-.8.46-4.23-1.84-.9.808-4.7,1.414-3.591-.64-.909-.685-.269-2.076-.258-.46-1.246-1.145-1.189-1.8-.236-2,.583-3.086.7-.426,1.975.4,1.044-.842.09-.628-1.459.483-1.369-.146-1.055-.8-.2-1.178.382-5.7.819-.853.393.842,1.975.673.617-.067-.516-.471-1.425-.247-1.01-2.424.4-1.885,1-2.211,1.492-1.492,1.077-.64,1.5-.55,1.481-.146,3.883.584,8.091,1.986,4.152-.516.123-.337,1.279-.7,2.424-.415,3.243.325,3.142.92,7.272.954.707.527-.056,1.38-.786.83-.763,1.683-.4,2.974-.965,3.7-1.448.763-.393.774.258,1.335-2.222,2.9-1.56,3.928-.55.5Zm-52.977-.191-.842-.572,1.234-2.525-.1-2.009.281-.236,2.615-.539,1.01-.965.168-.561-.224-2.626.965-2.9,1.414-1.672,2.57-1.65,3.221-.224.808,2.648-1.234,2.458-.954,3.411-1.234.752-1.5,2.278-.875.808-5.543,3.714-1.773.4Zm31.959-25.7-1.156-.281-2.749.09-.887-.18-.325-.292-.426-1.223.011-1.391,1.694-.471,2.121.045,2.458-1.448,5.4-.673.864.292.763.763-.2,1.145-2.873,1.56-2,2.783-1.234.561-1.459-1.279Zm5.375,0,2.087-1.347,2.222.034,1.852.7.595,1.111.056.7-.987.864-3.2.314-1.313.359-2.536-1-.224-.595,1.448-1.133Zm-19.054,4.926-.561-.292-.684.045-1.728-.774.236-1.3.718-1.032,2.155-.449,2.648-1.01,1.481.09.9.763.1.146L380.1,89.869l-1.2.382-1.9,1.627ZM387.578,81l-.92-.337-.191-1.863.168-.673,1.313-1.47,2.749-1.032.281.135.595.763.045,1-2.188,2.233Zm-15.519,22.69-.157-.46.213-1.044,1.167-3.153,2.906-1.9.808-.314.774.157-.18,2.009-1.751.494-1.818,2.458ZM384.3,83.977l-1.335-.348-.337-.539.987-1.077.8-4.433,1-1.38.325.146.079.359-.022,2.783.673,2.1-.359.987-1.156.449-.651.954ZM367.683,95.412l-.3-.213.135-.685.617-.4,1.335-1.919.853-1.728.819-.741,1.627-.606-.224,1.672-.449,1.122-1.93,1.863-2.48,1.638Zm15.564-7.889-.673-.168-.943-.8-1.077-1.84-.056-.426.258-.325.909-.651,2.076.943.325.483.269,2.345-1.088.438Zm-6.037,34.293-.729-.123-.988-.584-.774.516-.842-.314-1.885-1.953v-.685l1.436-.011,3.434,1.481ZM353.476,115.6l.045-1.156-.224-.337L353.97,113l2.648-.987.875.426.976.965-.325.393-1.156.527-2.85.46-.662.819Zm14.251-7.507-.2-.034.011-.393.606-1.055,2.009-1.818.471-1.391.056-1.459.269-.337.359.494v1.694l-1,3.063-.7.729-1.885.5Zm7.07-11.109,1.852-3.322.988-.236.8.213.3.976-.651.8L374.8,96.983Zm35.258,21.287-.943-.393-.382-1.189,1.167-1.93,1.2-.37.213.112-.022.83-.83,2.514-.4.426Zm-37.57-21.848-.606-.224.359-2.289,1.492-2.031.258.045,1.448.987-.011.281-1.739.718Zm2.5,5.644.808.034-.449.5-1.055.348-.123,1.257-.887.8-1.9.943-.18-.2.3-.931.527-.707,1.941-1.874,1.01-.168Zm-25.316,11.457-.617-.213-.079-.393.483-.449,3.995-1.8.606.785-.011.224-1.571.819Zm71.291-5.364-1.156-.213-.92-.886.976-1.4,1.5-.011.213,1.335-.112.662-.505.516Zm-41.8-21.209-2.648.786-.662.011-.2-.236,1.156-1.167,1.167-.572,1.167.191.494.382.168.258-.168.236-.471.112Zm-5.914,9.639-.09-.853.281-.561,2.783-1.638-1.01,2.244-.909.707-1.055.1Zm2.4,5.083-.505-.135-.079-.258.875-1.683,1.335.022-.135,1.515-1.492.539Zm31.465,17.764-.314-.258,1.01-1.8.763-.449.258.842.572.415-.292.584-.483.382-.707-.2-.808.483ZM377.2,93.269l-1-.079.022-.213,2.648-2.065.045,1.077-.258.707-.281.382-1.178.191Zm75.7,11.468-.426-.595.213-.853,1.145-1.021.281.168.258,1.964Z" transform="translate(-233.701 -41.491)" fill="#007900" stroke="#fff" stroke-width="2"/>
</svg>
