<svg xmlns="http://www.w3.org/2000/svg" width="105.999" height="119.425" viewBox="0 0 105.999 119.425">
  <path id="BR-RR" d="M245.987,69.161l1.8,19.043h0l-20.749-.079.034.763-2.615,3.658-1.863,3.4-.079,1.268-1.29,2.962-.123.741.258.819,1.279,1.582-.022.595-.471.438-2.278.617-1.582,1.582-1.4.516-2.042-.258-1.032-2.817-2.1-2.289-3.176-1.044-1.8.067-.617,1-2.345.8-1.436.774-1.145,1.414-.92,3.333.415,2.02-.281,1.941-.842,2.57.494,2.368-2.648-1.167-1.5.471-.595-.079-1.167-2.289-1.661-1.852-2.2-1.47-.584-.045-5.622-4.96.157-1.279,2.065.37,1.279-1.481.067-.651-1.268-4.859-.651-1.01-1.369-.943-.988-2.435-.325-5.588.64-1.077.864-3.411-.741-1.773-.4-1.784,1.818-1.638-.056-.5-.976-1.257-.213-2.536-1.863-5.341-3.063-4.2.8-1.683,1.021-3.726-.55-.741-2.188-1.066-1.526-.123-.988.236-1.088-.415-1.358-1.313-.067-1.077-.707-.123-1.268.471-.685-.011L169.6,54.2l-.808-.875h0l.337-.516.258-2.559-.337-.247-3.782-.258-4.208.157-3.714-.786-.224-.673.9-1.975.135-1.661-.819-1.986-2.177-3.972-.819-2.312-.527-4.174.886-1.661-.09-1.077-2.065-2.244-2.424-1.189-3.153-3.12-1.189-2.031-.325-1.077-1.279-.729-.281-.438.034-.943.325-.37,1.01.079,1.257.741,1.055,1.941.685.1,3.8-.561,1.515.112,2.143.662.685,1.347.617,2.166.606.393,1.077-.09.83-.729L160.6,23.2l3.568.18.527.056,1.47,1.358.673.168.584-.157.685-1.751,1.47.157,1.627,1.044,4.41,5.128,1.178.64.8.123,1.694-.763.83-1.268.112-.943-.931-3.1.4-1.953.516-.314,2.166-.056,1.133-1.234,1.739-1.223.842.056,4.376,1.5.662-.191.9-.808,1.156-.337,1.268.393,1.156-.236,1.5-1.436,1.122-.281,1.29.258,1.246-.079.763-.954.056-1.515,3.4-2.031,2.615.213,3.1-.438,1-1.268.1-.8.662-1.257.842-.146,2.076-1.01,1.234-1.167,1.246-1.919-1.347-3.995-1.313-.4.718-.2,1.6.079.9.359,4.006-.112L223.622.508l.83-.247,1.537.471.595,1.47,1.167.9.539,1.537-.752,5.5-.808,1.549-1.4.786.067.931,1.807.46,1.818-.247,2.637.909,2.042,1.234-.988,1.6-.011,1.29,2.626,3.838.224,1.739-1.694,3.277-2.11,1.582-.808,1.683.3.438.067,2.435-1.65,2.7-1.01,3.108-.348,2.884-.1,3,1.1,2.1.572,1.975-.011,1.571,1.762,1.156,1.01.224.146.763-.516,5.779.135.83,2.031.325-.741,1.313.516.561,2.413.83,1.638,2.155,2.985,3.075Z" transform="translate(-142.882 0.783)" fill="#007900" stroke="#fff" stroke-width="2"/>
</svg>
