<svg xmlns="http://www.w3.org/2000/svg" width="143.689" height="136.964" viewBox="0 0 143.689 136.964">
  <path id="BR-RS" d="M330.325,653.445l-.4.011-2.177-1.246-.224-.516.583-4.792-.516-4.769.168-1.2.707-1.391,3.187-2.671.931-1.751,2.581-2.873-1.638-1.852-1.2-.7-2.525-.673-2.6-2.525-1.358-1.818-.112-1.784-.483-1.324-1.38-2.278-2.312-2.514-.752-.662-2.682-1.358-1.627.236-2.132-1.694-1.706-1.829-1.4-.875-.157-1.908-2.132-2.424-3.726-.516-1.032-.527-1.941-1.863-1.975.146-2.435-1.549-2.143-4.163-1.246-1.672-2.839-2.379-.786.09-.752,2.009-2.906,2.514-3,.135.112-3.209.449-1.436-.438-1.122-4.1-4.814-2.66-1.986-2.446-2.312-1.964-2.368-3.019-2.48-2.132-.157-2.413.236L264.3,580.37l-.067,1.077-1.156,1.089-1.246.022-.651-.539-3.546.157-.729-.539-.18-1.021-.55-.247.954-.247,1.167-.808,2.828-3.108.123-2.065.673-1.4.92-.505,1.448-.079.718-.292,1.032-1.122,6.116-7.272.707-1.593.191-1.246.92-1.2,1.347-.954,1.537-.46,2.2-4.735.112-.685.348-.415,1.84-.965,1.829-2.02.954-1.291.572-1.448,1.5-2.357,1.044-.325,1.762.2.617.886.527-1.436-.236-.651-1.515-.92-.056-.4.393-.37,1.212-.426.92-1.077,3.131-1.066,1.178-1.2.112-1.032.92-1.021,2.48-1.29,2.772-.449,1.986-2.031.168-1.189,1.481-2.648.37-.045.056.4.325.224,1.492-.191,2.738-1.268,3.007-.662,1.358-.64,2.357-2.637.561.011.752-.438,1.133-1.515,2.592-.819.337.426h0l3.95.438,3.658-1.29.628-.909,1.515.651-.168,1.032,3.456-.034,1.829,1.111,2.873-.415,2.155,1.29,2.9-.46,1.728.2,3.142-.18,2.536,1.032,2.783,1.571,1.122,2.738,1.784.213.1-.539,2.031-.393,6.239,3.972,1.537,1.739.8-.034,1.751,1.1,3.4,3.916,1.84,2.48.539,1.661,2.435,2.985,1.313.617,7.507,1.19,2.368-.449,3.759.382.987,2.626-2.334,1.773-1.425.46-.819,2.087.247,2.458-.426,1.751-.583,1.459-1.324.224-1.448,1.9-.034,1.582,2.02,1.313.3-.224-.314-1.088.011-1.077,1.672-.92,1.773.718.819,1.021,1.313.954.5-.034h0l-1.571,1.941-4.376,7.9-4.724,13.017-7.07,11.76-6.1,7.474-7.305,6.688-6.834,4.13-3.479,4.836-.2-.482.729-1.773.382-2.446-1.324-1.919.112-.471,1.044-.191,1.133.449.628.651,1.145.045,2.9-1.582.92-.763,3.2-4.163.842-.774.5.213,1.145-.213,1.178-.943,1.044-1.425.415-1.661.2-1.044L368.9,600l.224-1.537,1.762-.079.83.337.3.931.393-.292-.325-1.571.572-2.323.539-.64,3.075-1.784.819-1.212.527-3.086-.236-2.559.628-.763.561.9.415.034.483-.471.527-3.456-.112-.494-1.066-1.369-.752-.034-.292.774.191.438-.157.64-.393.224-1.694-.022-2.256.449-.382,1.807-.595.056-.909-.494.112-1.919-.92-1-1.167.37-.673-.539-.819-1.414-.449-1.627.135-.64-.718-.774L366.4,579.9l.494,2.525,1.4,2.368-.64.909-.83,2.85.426,3.4-.2.864-.539-.415.292-.269-.034-.8-.527-1.436-.5-.438-.595.741-.034,1.537-1.582,3.669-.056,2.121.247.584-.808.786-1.807.718-.684,1.773-4.59,1.762-.808.595-.595,1.784-.112,2.547-1.089,2.547-2.648,1.459-.123,1.975.539.931.281,1.145-1.066.628-.281,1.695.483.673.763-.157,1.459.707.168,1.021-2.39,1.852-2.6,5.072-2.166,7.72-2.256,5.038L341.5,643.21l-8.742,8.45Z" transform="translate(-253.164 -517.499)" fill="#007900" stroke="#fff" stroke-width="2"/>
</svg>
