<svg xmlns="http://www.w3.org/2000/svg" width="125.171" height="102.737" viewBox="0 0 125.171 102.737">
  <path id="BR-RO" d="M196.787,301.551l-1.448-1.627-.494-2.11-1.751-.583-.965.359-2.031.09-4.567-2.031-.011-.449-.741-.685-1.425.662-2.222-1.885-1.706-1.089-.965-1.638-.314-1.56-1.167-.438L175,289.825l-1.369-.034-1.582-.9-.976-1.492-3.512-1.773-2.2-.191-1.279.606-1.01.954-1.6-.191-.348-.337-2.4-.572-3.434-.314-.853-.483-1.324-1.335-.337-2.211-1.773-.55-2.121-1.088-.92-1.93-.325-.224-3.052-.314-.426-.393-.943-4.163-.988-1-.539,1.3-.741-.359-.3-.718.7-1.717-.943-1.706-1.526-.438-1.414-3.894-.191-1.863L139,259.235l-.236-1.863-1.3-2.211-.842-2.424-.067-2.57.7-.561.426-1.537,1.167-1.178.4-1.65-.269-1.672-.471-1-.1-1.717.606-1.852-1.313-2.446-1.145-.426-1.223,1.1-.067.572-.943,1.077h-.64l-2.446-1.145-5.813.09-6.3,2-1.9-.011-1.661.539h0l-3.333-1.414h0l3.658-2.873,2.155-.651,1.739-2.031.168-.628-.18-1.448,4.444.292,3.221-.37.808.415,2.592,2.615.415-.022,1.369-.887.146-.808.46-.595,1.212-.561.864.146,1.537-.438,1.459-1.358,2.065-1.145.426.1.718,2.536.763.595.763-.09,2.85-3.546-.292-1.964.595-.943,1.964-1.414.516.022.943.617,2.009.112,1.347-1.2,2.39-.426,4.343.516-.269-1.638.123-2.031,2.312-1.358.909-1.29.4-1.145-.191-.5-1.01-.786.056-.752,1.335-1.784,2.783-.595.292-.247-.1-1.313,1.93-.561,1.549-2.873,12.108-.067,2.413,1.268.5.55.9,2.143,1.492,1.425,2.85,1.1,1.4,3.669.516.236,1.1-.146.7.224.763,3.232,3.636,1.661.763-.213.606-1.953,2.155-1.212,1.56.314.4.426-.045.786h0l1.571,1.089.673,1.391-.853,1.593-1.448,5.6.067.393.875.527.292.685.168,1.56.931,2.547-1.055,1.874.426,2.166-1.122,3.95-.034.9.3,1.975,1.683,3.086-1.01,10.1,19.256.056-.269.628,1.369,1.246,3.928-.1,1.246.123,1.2.483,1.582,4.029-.191.842-1.571,1.964-1.526,1.212-.157,1.481.483,3.647.651.572,1.01-.034,1.717,3.748-.045,2.3.651,1.672-.079,1.919-.628,2.514-1.863,2.256-.584,2.525-.651.943-.483.46-1.84.595-1.044,1.212-1.6,4.242-.584,2.749-4.612,2.884-1.65,1.6h0l-.83-.045-2.906-1.739-1.425-1.6-7.945,1.077-1.481-.483-.281-.337-3.793.741-.539-.18-.584-1.515Z" transform="translate(-110.284 -205.56)" fill="#007900" stroke="#fff" stroke-width="2"/>
</svg>
