<svg xmlns="http://www.w3.org/2000/svg" width="66.048" height="39.999" viewBox="0 0 66.048 39.999">
  <path id="BR-RN" d="M616.5,186.354l-1.044.269-3.928-.236-1.167.449L607.6,185.6l-2.435-.337-6.542.438-.595-.393-3.838-.449-.7-.55.112-1.122-.471-.438-1.549.056-2.042,1.515-.348,1.661.808.875.595,1.717-1.133-.359-.539.662.18,1.593.527,1.055-.617,1.358-.561.83-2.637,1.044-.931-.83.584-1.728-1-1.313-2.188-.337-1.986.09-3.535,1.414-.325-.258-.348-1.549-.359-.258-3.961-.584.09-1.93.236-.348.954-.281.46-.426.426-1.953.494-1.077,3.355-3.6-.011-1.335-.595-.494-.718-.09-3.658,1.167-1.6.135-3.568,1.358-.46,1.066-.112,1.167-.92.8-3.625,1.863-1.3,1.268-3.232-.685-1.01-.471-2.166-1.84-.64.516h0l-.741.426-.718-.191.382-2.211,1.582-2.525.943-.988.572-.079.875.572,1.156-.292.64-1.234L560.491,176l1.571-2.738-.168-.83.729-1.874.976-.64.943-1.257,3.7-7.507,2.929-2.256,5.487-1.784h0l.527.853.965.842,3.512-.011,1.369.46,1.9,1.964,1.481.561,3.737-.359,3.232.584,2.85-.269,2.615-.819,5.05,1.032,1.425.045,2.188.965,1.145.92.718,1.055,2.592,5.319.561,2.009-.045.842,1.661,6.037.236,1.885.808.606,1.077,3.019Z" transform="translate(-551.562 -155.917)" fill="#007900" stroke="#fff" stroke-width="2"/>
</svg>
