<svg xmlns="http://www.w3.org/2000/svg" width="70.803" height="50.645" viewBox="0 0 70.803 50.645">
  <path id="BR-RJ" d="M470.265,455.293l-.079-.875.426-.3,3.58.247,2.906-.662-2.839-1.739-1.571-.561-3.153.763-1.526,1.8-1.156.359-.786-.056-1.515-2.413h-.539l-1.01.471-1.077,1.189-3.535.9-.382,1.021-.213,2.132,2.458.146,1.2,1.133-1.29,1.212-1.055-.191-1.594.191h0l-.539-.292-1.829-1.941-.056-.46,1.223-3.928,1.223-1.29,2.637-1.133.561.168,3.108-.4,1.683-.8,1.852-2.413-.842-1.84-1.908-.011-3.535.595-1.986-.438-1.38-1.784-.628-1.313-1.425-.606h0l.763-.55,2.716-.83,3.265-1.5,2.9-.191.561.3,1.93-.864,1.178-.864,4.59-2.009.583-.079.4.348,3.591-.079,1.4-.191,1.829-1.055.64-.067,2.839.3.55.191-.022.527,1.549-.224,10.672-5.083,2.839-1.111.236-.583-.314-.685-1.616-.146.1-.842,2.121-4.163,2.648-6.778-.819-.8.628-.55,1.391-.3,2.839-2.648h0l2.166.853.752,5.285,2.805,1.268,4.859,1.133,3.355-.415,1.818,1.189h0l-.09,1.425-1.055,1.807-.247,2.39,1.279,7.608-.561.763-3.456,1.964-6.7,2.177-3.176,1.93-3.928,4.141-.123,1.863.348,1.335-.213,1.818-.819,1.661-2.042.572-7.35-.191-6.5.786-2.682-.516-.55-.426-.067-.763,1.156-1.661.752-1.627-.1-.7-.875-.2-3.131,1.29-.292.774.348.887,1.549,1.313.281,1.089-.662.583-1.829.572-1.762-.034-9.022,1.2-1.638.505Zm-5.734,2.233-.752-1.089,2.368-1.739,2.087,1.055.482.786-2.76.561-.46-.393h-.527l-.438.819Z" transform="translate(-453.652 -410.479)" fill="#007900" stroke="#fff" stroke-width="2"/>
</svg>
