<svg xmlns="http://www.w3.org/2000/svg" width="34.601" height="38.573" viewBox="0 0 34.601 38.573">
  <path id="BR-SE" d="M571.646,265.785l-3.254,1-1.739-.718-.606-.382-.539-.808-2.155-1.032-.673-.584-.135-.46.382-.438.146-1.593-.168-.438-1.6-1.694-.584-1.672-1.223-.752-1.077-1.8-.022-.864.662-1.773.359-.337,1.908.011,1.268.842,2.862-1.111.774-.617.337-.651-.853-3.086.09-.987.741-1.818.09-3.49-.842-1.29-2.233-2.188-1.425-2.805-.247-2.4.752-1.29h0l7.249,3.344,4.13,1.066,6.082,3.445,1.459,2.749,1.975,1.627,1.863.886.516.034,4.029,2.5.673,1.47h0l-2.671.853-5.128,3.3-1.088,1-1.739,2.48-.359-.022.123-1.234-1.178-2.042-1.111.18.382,1.3h1.391l.258.269-.584,2.211-1.425,2.345-.595-.393-.415-.752L575.36,257l.224.763,1.268.7-.292,1.986-.965,1.29-1.044,2.278-.875.168-.337-.516.539-1.571.46-.146.348-.483.415-1.167-.909-.415.112.763-.5,1.268-.539.561-.292,1.223.314.808-.292.583Z" transform="translate(-557.388 -229.272)" fill="#007900" stroke="#fff" stroke-width="2"/>
</svg>
