<svg xmlns="http://www.w3.org/2000/svg" width="98.374" height="68.77" viewBox="0 0 98.374 68.77">
  <path id="BR-SC" d="M387.451,565.438l-.5.034-1.313-.954-.819-1.032-1.784-.707-1.661.92-.011,1.077.314,1.088-.3.224-2.02-1.313.045-1.582,1.436-1.9,1.324-.224.595-1.47.415-1.739-.247-2.458.819-2.087,1.425-.471,2.334-1.773-.988-2.626-3.759-.382-2.368.449-7.507-1.19-1.3-.606-2.435-2.985-.55-1.661-1.829-2.48-3.4-3.916-1.762-1.111-.8.034-1.537-1.739-6.239-3.972-2.031.382-.1.539-1.8-.213-1.122-2.738L345.2,525.3l-2.547-1.044-3.131.18-1.728-.2-2.906.46-2.143-1.29-2.884.4-1.829-1.1-3.456.034.168-1.044-1.515-.651-.628.909-3.658,1.3-3.95-.438h0l1.627-3.288.819-2.345-.651-3.647.46-3.6-.045-2.861,1.077-1.964h0l4.073.022.8-.426.595.011,1.189.269.348.572,2.278,1.582,3.007.034,2.626-.651,5.936,1.885,4.78.4,1.145.707.191.46,1.762,1.324,4.231.471,4.769-.146,1.492,2.132.2-.561.83-.426,1.032-.022.976-.965-.954-3.355.774-1.773.808-.875,2.244-1.279,4.006.449,2.1-1.089.819-.976.662-1.661,1.717-.729,1.246-.157,1.593.853.909.034,2.615-.191,3.187-.819.842.011,1.167.449,3.5,2.918,1.38.7,1.616.18,3.759-2.39,1.515-1.6,1.751-.64.135.438.853.079,1.953-.258.37-.494,5.88.034h0l-.438,1.481.572,1.852-.079.438-1.683,1.279-1.1-.539-.92-2.839-.022,1.257.662,3.052,1.919,1.863.628,1.066-1.133,2.57-.18,2.6.112.482.853.819.292,6.576.348.617.483.224.864-.572.393.808.112.976-.527.067-.483-.314-1.335.707-.382,4.309.64,2.906-.64.842.348,2.166,1.021,2.11-.965,2.626-.584,4.5-1.919,5.252-.382-.112-.4-.853.236-1.088-1.032-1.324-.292.37.2,2.727,1.3.931-1.032,1.863-1.84.729-4.634,3.411-3.142,2.873-4.208,4.982-1.167,2.11Zm20.064-29.793-.168-.527.281-1.964.853-2.693-.449-1.324.18-1.145,1.571-.853.247.067.741,1.055-.606,2.873-.92.965-.662,1.369.224,1.313-1.29.864Zm-.5-27.347-2.1-2.267,2.861-2.738.281.045.729,1.178L407.818,506Z" transform="translate(-313.463 -498.536)" fill="#007900" stroke="#fff" stroke-width="2"/>
</svg>
