<svg xmlns="http://www.w3.org/2000/svg" width="159.522" height="107.749" viewBox="0 0 159.522 107.749">
  <path id="BR-SP" d="M414.516,499.543l-.18-1.492-1.593-.64-.819-3.7.449-2.188-2.4-.651-.853.191-1.234,3.108-.741.954-1.189-.595-.393-.875.774-3.7,1-.741.157-.449-1.807-1.425-1.784-.146-1.773.213-.561-.426-3.827.595-2.671.135-1.133-.236-.673-.438-.37-2.289,1.436-2.379.281-1.178-.281-.494-.673-.337-1.032-2.211.067-1-.561-.763-.752-.325-1.358-1.279-1.672-3.378.4-.617.09-1.975-1.459-1.706-.426-2.065.191-.909.438-.651-.022-3.075-1-1.975-4.029-3.176-1.268-1.739-3.333.965-5.959-.146-.741-.606-1.852-.157-.471.382-1.93-.079-.808-1.481-.707-.572-3.939-.9-1.964-.943-.875-1.122-2.9.011-1.2.606-1.481-.146L350.15,448.1l-2.839-.516-1.661-.887-1.313-.325-.819.415-.382.673-1.358.7-3.681-.325-4.5.123-4.3-.729-3.647,2.57h0l.943-1.212.819-1.728,1.414-1.279,8.483-5.095,2.188-2.1,1.414-2.727,1.941-1.9.449-1.358,1.616-1.156.314-1.369-.393-.943,2.244-2.536,1.358-2.626.079-1.055-.348-2.166.258-.438,1.077-.584,2.918-4.085.18-3.288.7-1.885,1.133-.337.819-.718,2.233-3.007,1.369-1.145.527-.258,1.47-.045,1.683-.875.314-.449.449-2.76h0l1.369-1.268,2.413-1.246,2.155-.415,1.6-1.9,1.683-.685.842.157,1.941,1.739,2.861.09,4.814,1.077,1.874-.4,1.818.247,2.244-.662,2.446,1.594,1.874.886-.146,1.032.37,1.593,1.358,2.345.707.034.606-.359.752-1.055.46-1.268.292-.213.617.056.4.438.281,1.077.011,3.12,1.347.595.46-.505-.3-2.85.55-1.335.5-.539,9.179-.752,1.133-1.4,1.683,1.638,1.257.482,3.12-.774.494-1.111-.224-.516.348-.685,2.671-.123,1.863.875.954-.718,1.47-.325,3.658,3.759.224,1.167-.64,1.133-.325,2.659.651.685,2.121,1.358.449,1.739-.067.628-1.706,2.278-.2,2.177.887.83.348.685.415,2.48,1.459,2.02.931,2.233-.034.954,1.807-.056.875-.348.314-.4,1.122-.056,4.152,1.481.258.415-.056,1.425-.786,2.446-2.087,3.052.292,3.3-.213,3.871-.595,1.751.808,1.8,2,1.391,2.031.931.572,1.93-1.358.786,2.267,3.714,1.268.281,2.256-.269.2.595,4.062-1.122.628.471,1.47-.359.842-1.1.056-.943-.269-.269.191-2.581,1.335-.37.1.393-.393.55.011.539,2.626.09,2.682-.281,2.009-.752,1.38-1.391,2.166-1.145,2.48-.247,1.391-.819h0l1.425.606.628,1.313,1.38,1.784,1.986.438,3.535-.595,1.908.011.842,1.84-1.852,2.413-1.683.8-3.108.4-.561-.168-2.637,1.133-1.223,1.29-1.223,3.928.056.46,1.829,1.941.539.292h0l-.067.224-1.9.471-1.189-.92-1.661,1.246-.483.729.3.247-.853.718-3.613,1.739-2.525.786-.314.494.045,1.077.561,1.739-.359.471-1.571.292-.786-.718-1.5-.325-3.5-.561-.965.168-1.481.382-1.941.92-.561.572-1.358,2.413-1.47.64-.561-.135.651-.527-.539-1.369-1.313-.954-.931,1.38.292.842-.337.685-8.551,4.758-1.066.92-.348,1.3-3.669,3.366-3.647,2.188-2.155.595-5.05,3.6-2.615,2.2-.752.09-.494.7,1.01.482.741.067,1.044-.4v.853l-.7,1.47-1.481.954-1.189,1.661Zm49.723-25.821-1.728-.729-1.3.2-.55-.426.112-.875,1.066-.729,1.223-2.076.808.281.741.729.146,3.266-.516.359Z" transform="translate(-324.864 -394.134)" fill="#007900" stroke="#fff" stroke-width="2"/>
</svg>
