<svg xmlns="http://www.w3.org/2000/svg" width="90.648" height="145.779" viewBox="0 0 90.648 145.779">
  <path id="BR-TO" d="M442.2,296.713l-6.015,1.593-1.953,1.5-2.873,1.234h-1.739l-5.083,1.122-2.828,2.334-2,1.01-.516-.269L417.5,302.3l-.617-.034-.572,3.7-.774.09-3.759-.763-3.512-1.65.628-1.751-.247-.83-5.083.595-3.1-.382-.628.606-.337,1.122-.842.842-1.279-.056-.685-3.479-1.246-4.163-1.167-2.11-1.29-1.47-1.324,1.088-1.65,2.682-1.829,6.666-.707.258-4.567-1.6-3.467-1.919-4.41-.449-2.469-1.156-2.693-.449.584-2.626,1.369-2.11.034-1.919-.628.337-2.031,2.345-.741,1.38-.224,2.11-.382.505h0l-.9-.022-1.077-.572-1.1-3.748.83-3.1-.494-3.423-.583-.651-.011-1.762.527-3.714-1.234-2.525.056-.561.92-1,.18-.976-1.56-1.5-.067-.965,2.11-6.722.045-3.31.606-3.333,2.177-5.936.415-.3.483-.954.494-3.524,1.234-1.4.628-2.121.729-1.145h0l1.818-4.141,1.268-4.994,1.29-1.773,1.335-1.234,1.358-1.885,1.156-2.155,1.537-1.032,1.178-.18.819-.954,1.055-1.728.2-1.111,1.908-3.636,1.223-.9,1.975-5.779.741-4.534-.168-.337-.83-.359-1.874-1.953-.673-1.066-.18-.988.157-.64,1.582-1.9,1.448-2.357-.067-3-.483-2.446.213-.393,2.772-2,3.827-1.279,2.805-1.358.269-.561-.168-1.694.965-1.425,1.694-1.5,1.448-.168.213-1.5-.325-1.347.281-.516,1.638-.516.718-.539,1.044-3.086-1.145-1.5-.1-1.571.325-.314,1.088-.09.808-.415.415-.741.034-.718-1.414-1.313-.976-.157-.438-.348-1.145-1.863-1.448-.135-2.1.281-2.57-.909h0l.595-.718,2.94-2.076,2.2-.595.976.056,3.12,1.706,1.571.09,1.066-.584,1.953.325.662.774.09,1.156.314.359,1.369.034,3.815,1.6.943,1.156.527,3.928.718,1.683-.236,4.174.258,1.212.752,1.268-.011.494-1.986,6.9-.348,2.66.314,1.122-.281,1.784-1.964,2.289-1.975.752-.2.8,2.177,1.481.471-.3,1.537.269.281.393.123.987-.7,1.335.954,1.616.988-.079,3.366,4.668,1.021.954,2.559,3.389,2.4-1.5,4.792-1.055,2.02,1.369.09,1.964-.718,3.647.438,1.515-3.8.393-1.5.606-.64.617-.763,1.6-.819,3.007.415,1.459-2.951,2.861-.292.786.224.471,2.334.325,1.055.774.83,1.784.067,1.863.7,1.167,4.354,2.188.1.595-1.84,2.031.146,1.852,2.4,1.818,1.111,3.221,1.5,2.244.8.2,2-.236,1.122.337.92.494.685.92,1.436.741h0l3.3.236h0l-.774.729-.247,1.1-.628.527-4.287,2.267-3.6,2.94-.213.415,1.448,2.02-.4.438-1.133.3-1.01.685-1.706,3.916-1.133.808-.561,1.3.258,1.032,2.087,2.188,4.029.752,2.1,1.111.056.853-.628.5-2.289.909-.483,1.077.1.561.393.37,1.156-.2,1.032.325.651.572.325.718-1.077.8-1.29.471-2.188,1.874-.213.954-.056,3.277.393,1.4,1.055.741,1.178.269.46.281.191.471.056,1.189-1.526,2.671Z" transform="translate(-362.332 -161.293)" fill="#007900" stroke="#fff" stroke-width="2"/>
</svg>
